<svg xmlns="http://www.w3.org/2000/svg" xmlns:xlink="http://www.w3.org/1999/xlink"><symbol fill="none" viewBox="0 0 251 270" id="big-gift" xmlns="http://www.w3.org/2000/svg"><path d="M.796 53.068C.053 60.328.45 67.743.36 75.04.276 81.73-.575 88.933.68 95.525c.137.717 1.389.717 1.526 0 1.26-6.605.404-13.786.323-20.484-.092-7.295.306-14.716-.436-21.973-.081-.787-1.217-.789-1.297 0ZM16.763 269.387c18.374.819 36.85.283 55.237.349 18.124.062 36.25.131 54.375.192 18.123.062 36.25.045 54.373.067 9.207.011 18.414 0 27.62-.005 9.273-.007 18.399-.556 27.619-1.058a.621.621 0 0 0 0-1.242c-9.22-.502-18.344-1.051-27.619-1.056-9.206-.007-18.411-.016-27.62-.006-18.123.021-36.25.006-54.373.066-18.125.062-36.251.13-54.374.194-18.39.064-36.864-.469-55.238.349-1.427.064-1.43 2.086 0 2.15Z" fill="#FE8D00"/><path d="M13.38 96.649c-1.29 28.237-.112 56.75.044 85.017.07 12.65.14 25.302.199 37.953.033 7.183.046 14.37.064 21.553.019 8.395-.685 17.176.266 25.51.984-.131 1.97-.262 2.954-.396-.083-.29-.166-.58-.247-.869-.322-1.132-2.25-1.269-2.489 0l-.164.869c-.398 2.111 2.73 2.557 2.953.396.858-8.343.047-17.118-.043-25.51-.074-6.964-.157-13.929-.23-20.897-.135-12.87-.268-25.74-.408-38.609-.31-28.274.44-56.788-1.17-85.017-.06-1.06-1.678-1.067-1.728 0ZM105.088 52.069c-1.041 28.787-.17 57.728-.047 86.532.109 25.025.251 50.049.311 75.073.019 8.041.037 16.082.049 24.122.019 9.503-.789 19.445.261 28.886.984-.131 1.969-.263 2.953-.396l-.247-1.115c-.256-1.156-2.305-1.248-2.49 0l-.164 1.115c-.313 2.124 2.732 2.551 2.953.396.842-8.22.087-16.833.018-25.1-.063-7.486-.127-14.974-.194-22.46-.114-12.992-.216-25.982-.329-38.973-.211-25.024-.434-50.048-.629-75.073-.139-17.656.079-35.365-.718-53.006-.045-1.063-1.688-1.068-1.727-.001ZM146.757 52.069c-1.043 28.787-.171 57.728-.047 86.532.107 25.025.247 50.049.31 75.073.019 8.041.036 16.082.05 24.122.017 9.503-.79 19.445.261 28.886.984-.131 1.97-.263 2.954-.396l-.248-1.115c-.256-1.156-2.303-1.248-2.488 0-.056.372-.109.744-.164 1.115-.315 2.124 2.732 2.551 2.951.396.843-8.22.087-16.833.018-25.1-.063-7.486-.127-14.974-.192-22.46-.116-12.992-.218-25.982-.329-38.973-.213-25.024-.436-50.048-.631-75.073-.137-17.656.081-35.365-.716-53.006-.048-1.063-1.691-1.068-1.729-.001ZM237.225 267.8c1.244-28.635.559-57.514.537-86.178-.009-12.939.005-25.88-.042-38.819-.028-7.327-.055-14.654-.052-21.981.005-7.857 1.173-16.759-.626-24.433-.221-.937-1.748-.937-1.968 0-1.8 7.673-.633 16.576-.628 24.433.004 7.103-.024 14.206-.048 21.309-.048 13.163-.036 26.327-.045 39.491-.021 28.664-.705 57.543.536 86.178.062 1.459 2.272 1.462 2.336 0Z" fill="#FE8D00"/><path d="M2.846 53.121c31.928.99 63.967.535 95.909.553 32.257.021 64.517.044 96.773-.057 18.137-.057 36.325.301 54.436-.741a.808.808 0 0 0 0-1.616c-31.846-1.834-64.016-.792-95.909-.806-32.257-.013-64.518-.076-96.773.089-18.133.091-36.311-.089-54.436.471-1.401.044-1.403 2.064 0 2.107ZM106.403 95.71c.014-.216.04-.403.061-.603-16.472.026-32.945.057-49.417.08-18.054.024-36.153-.301-54.202.267-1.575.05-1.578 2.339 0 2.387 31.789 1.003 63.696.26 95.498.344 2.836.009 5.67.005 8.506.01-.316-.822-.496-1.685-.446-2.485ZM248.9 95.815c-16.01-1.11-32.139-.748-48.177-.748l-47.317-.005c-1.995 0-3.995.005-5.99.007a8.763 8.763 0 0 1 .194 3.15c15.696.006 31.393.013 47.09.013 18.037-.002 36.196.496 54.2-.75a.833.833 0 0 0 0-1.667ZM106.836 107.377v-2.311c-12.712-.349-25.485.007-38.164.021l-26.55.026c-9.1.008-18.345-.369-27.41.508-1.034.1-1.036 1.434 0 1.535 9.063.876 18.31.499 27.41.508l26.55.026c12.691.014 25.476.37 38.2.021-.005-.115-.036-.222-.036-.334ZM160.475 106.33c24.902 1.628 50.038 1.161 74.981 1.514 1.256.019 1.256-1.848 0-1.874-24.938-.479-50.042-1.785-74.981-.987-.92.028-.909 1.288 0 1.347ZM227.533 202.438c-.393 9.489-.478 19.011-.562 28.508-.078 8.798-1.138 18.336.273 27.026.112.699 1.371.699 1.484 0 1.409-8.68.351-18.235.273-27.026-.085-9.497-.171-19.019-.564-28.508-.021-.545-.88-.545-.904 0ZM168.788 258.755c9.285.569 18.576.757 27.878.88 8.578.111 17.928 1.234 26.402-.18.764-.126.748-1.312 0-1.453-8.436-1.606-17.828-.687-26.402-.768-9.298-.088-18.586-.109-27.878.254-.866.035-.859 1.215 0 1.267ZM21.645 190.349c-1.107 9.187-.467 18.772-.342 28.007.058 4.527.162 9.052.249 13.581.081 4.25-.334 8.815.624 12.965.192.828 1.62.864 1.785 0 .804-4.197.228-8.706.148-12.965-.088-4.81-.16-9.621-.282-14.429-.226-9.011.03-18.342-1.385-27.258-.074-.453-.75-.288-.797.099ZM79.238 59.192c.283 0 .283-.406 0-.406-.284 0-.284.406 0 .406Z" fill="#FE8D00"/><path d="M249.052 52.27c-.617 7.395-.271 14.97-.372 22.391-.093 6.86-.78 14.04.421 20.823.1.558 1.099.558 1.198 0 1.202-6.79.514-13.956.422-20.823-.1-7.42.245-15-.374-22.39-.064-.788-1.227-.788-1.295 0ZM126.667 11.793c-4.792-11.718-22.021-10.034-24.628 2.385-1.38 6.573 1.741 13.024 5.846 17.96 2.811 3.38 6.134 6.257 9.23 9.363 3.201 3.21 5.596 6.696 7.961 10.538.578.937 2.221.361 1.891-.764-3.002-10.178-14.222-15.588-19.619-24.277-3.347-5.386-4.754-13.332.508-18.087 5.658-5.11 13.596-2.56 17.17 3.538.469.806 2.029.287 1.641-.656Z" fill="#FE8D00"/><path d="M124.416 16.447c3.292-5.567 8.316-10.75 15.285-10.69 6.701.057 12.793 5.294 12.325 12.258-.484 7.187-6.373 12.453-11.146 17.177a3377.945 3377.945 0 0 0-15.613 15.558c-1.135 1.137.653 2.822 1.765 1.718 7.331-7.275 15.405-14.305 21.933-22.321 4.266-5.239 7.396-12.754 3.787-19.2-7.308-13.046-25.179-6.82-29.905 4.875-.361.893 1.114 1.395 1.569.625Z" fill="#FE8D00"/><path d="M125.934 50.36C109.712 31.482 88.111 15.015 65.12 5.179 55.105.893 41.54-3.264 31.793 3.812c-9.489 6.885-10.061 20.576-4.369 30.006 7.634 12.64 23.398 17.952 37.395 19.1 1.292.105 1.607-1.975.311-2.222-12.592-2.406-25.84-5.023-33.993-15.986C23.843 24.903 24.381 8 37.705 3.524c10.62-3.568 23.157 1.992 32.589 6.735C79.79 15.033 88.808 20.777 97.414 27c9.764 7.06 19.815 14.951 27.827 24.008.389.446 1.102-.172.693-.646Z" fill="#FE8D00"/><path d="M99.83 37.003c-7.669-6.462-16.549-11.665-25.687-15.754-6.395-2.863-16.32-6.086-20.96 1.478-4.369 7.119 1.696 14.902 6.951 19.429 6.442 5.552 15.114 9.793 23.72 10.113 1.151.043 1.443-1.73.276-1.974-6.763-1.414-12.939-3.092-18.747-7.049-5.617-3.826-16.95-14.5-8.337-21.118 6.528-5.017 17.33 1.407 23.423 4.524 6.5 3.324 12.448 7.325 18.388 11.546.704.5 1.674-.607.974-1.195ZM105.727 40.656c2.48 2.18 5.349 3.934 8.128 5.702 2.715 1.725 5.586 4.034 8.711 4.872a.58.58 0 0 0 .593-.95c-2.046-2.256-5.164-3.635-7.772-5.17-3.002-1.767-6.031-3.627-9.274-4.914-.28-.107-.685.199-.386.46ZM126.754 51.007c6.758-7.64 15.102-14.408 23.197-20.577 8.892-6.777 18.27-12.965 28.115-18.275 9.127-4.922 19.979-10.182 30.607-9.617 14.568.775 20.714 16.111 14.601 28.288-6.97 13.888-22.557 17.222-36.413 19.87-1.279.246-.996 2.328.312 2.221 12.712-1.042 26.612-5.415 34.923-15.628 6.974-8.57 8.788-21.234 1.491-30.248-8.268-10.215-22.983-7.225-33.635-3.12-11.27 4.344-21.729 10.812-31.593 17.708-11.957 8.359-22.805 17.677-32.304 28.733-.406.472.305 1.091.699.645Z" fill="#FE8D00"/><path d="M153.135 38.196c5.73-4.072 11.465-7.96 17.718-11.204 6.239-3.237 17.423-9.99 24.093-4.865 8.257 6.347-1.987 16.5-7.353 20.404-6.046 4.397-12.538 6.259-19.732 7.763-1.153.24-.888 2.018.277 1.973 8.37-.31 16.849-4.359 23.2-9.665 5.436-4.54 11.978-12.531 7.469-19.875-4.466-7.279-14.012-4.541-20.276-1.78-9.388 4.139-18.512 9.433-26.372 16.057-.69.582.263 1.699.976 1.192ZM145.878 40.2c-3.242 1.287-6.272 3.147-9.274 4.913-2.608 1.533-5.726 2.914-7.771 5.17a.58.58 0 0 0 .593.95c3.121-.838 6.004-3.152 8.71-4.872 2.781-1.77 5.65-3.52 8.128-5.702.296-.265-.102-.572-.386-.46Z" fill="#FE8D00"/></symbol><symbol fill="none" viewBox="0 0 16 16" id="cart" xmlns="http://www.w3.org/2000/svg"><path d="M.44.025a.615.615 0 0 1 .765.416l.451 1.529H13.68c1.51 0 2.662 1.409 2.227 2.88L14.55 9.444c-.288.98-1.207 1.633-2.227 1.633H4.81c-1.02 0-1.938-.654-2.228-1.633L.025.79A.615.615 0 0 1 .44.025Zm2.841 14.129a1.846 1.846 0 1 1 3.693 0 1.846 1.846 0 0 1-3.693 0Zm6.564 0a1.846 1.846 0 1 1 3.691 0 1.846 1.846 0 0 1-3.691 0Z" fill="currentColor"/></symbol><symbol fill="none" viewBox="0 0 32 32" id="clan" xmlns="http://www.w3.org/2000/svg"><g clip-path="url(#a)"><path d="M7.063 8.34s.026 3.795 1.974 7.72c2.003 3.779 4.763 6.205 7.04 7.173 2.354-1.101 4.627-3.01 5.867-5.066h-6.46c-1.67-1.387-2.987-3.684-3.288-6.34h18.95c-.934 4.27-2.917 8.154-4.806 10.628A22.8 22.8 0 0 1 16.092 30h-.06C9.235 27.292 5.579 23.027 3.165 18.213 1.62 15.13 0 9.53 0 2h32c.006 2.12-.136 4.24-.427 6.34H7.063Z" fill="currentColor"/></g><defs><clipPath id="a"><path fill="#fff" d="M0 0h32v32H0z"/></clipPath></defs></symbol><symbol fill="none" viewBox="0 0 24 24" id="close" xmlns="http://www.w3.org/2000/svg"><path d="m12 13.597-5.59 5.59c-.208.208-.475.313-.798.313-.323 0-.59-.105-.798-.314a1.082 1.082 0 0 1-.314-.798c0-.323.105-.59.314-.799L10.403 12l-5.59-5.59a1.082 1.082 0 0 1-.313-.798c0-.323.105-.59.314-.798.209-.21.475-.314.798-.314.323 0 .59.105.799.314L12 10.403l5.59-5.59c.209-.208.475-.313.798-.313.323 0 .59.105.798.314.21.209.314.475.314.798 0 .323-.105.59-.314.799L13.597 12l5.59 5.59c.208.209.313.475.313.798 0 .323-.105.59-.314.798-.209.21-.475.314-.798.314-.323 0-.59-.105-.799-.314L12 13.597Z" fill="currentColor"/></symbol><symbol fill="none" viewBox="0 0 40 40" id="crown" xmlns="http://www.w3.org/2000/svg"><path d="M10 33.333c-.472 0-.868-.16-1.187-.48a1.62 1.62 0 0 1-.48-1.186 1.603 1.603 0 0 1 .48-1.187C9.134 30.16 9.53 30 10 30h20c.472 0 .868.16 1.188.48.32.32.48.715.479 1.187a1.626 1.626 0 0 1-.48 1.188c-.32.321-.715.48-1.187.478H10Zm1.167-5.833c-.806 0-1.521-.264-2.145-.792a3.277 3.277 0 0 1-1.147-2L6.208 14.125a.914.914 0 0 0-.186.022.847.847 0 0 1-.189.02 2.41 2.41 0 0 1-1.77-.729 2.418 2.418 0 0 1-.73-1.771 2.395 2.395 0 0 1 .73-1.77 2.431 2.431 0 0 1 1.77-.73 2.402 2.402 0 0 1 1.772.73c.489.489.732 1.079.728 1.77 0 .194-.02.375-.063.541-.042.167-.09.32-.145.459L13.333 15l5.209-7.125a2.564 2.564 0 0 1-.75-.875 2.422 2.422 0 0 1-.292-1.167c0-.694.243-1.285.73-1.771A2.405 2.405 0 0 1 20 3.333a2.424 2.424 0 0 1 1.772.73c.487.486.73 1.076.728 1.77 0 .417-.097.806-.292 1.167a2.566 2.566 0 0 1-.75.875L26.667 15l5.208-2.333a3.656 3.656 0 0 1-.147-.459 2.149 2.149 0 0 1-.061-.541c0-.695.243-1.285.73-1.772a2.405 2.405 0 0 1 1.77-.728 2.425 2.425 0 0 1 1.771.73c.488.485.73 1.075.729 1.77a2.433 2.433 0 0 1-.729 1.771 2.396 2.396 0 0 1-1.771.729.994.994 0 0 1-.187-.02 1.116 1.116 0 0 0-.188-.022l-1.667 10.583a3.27 3.27 0 0 1-1.145 2 3.23 3.23 0 0 1-2.147.792H11.167Z" fill="currentColor"/></symbol><symbol fill="none" viewBox="0 0 70 70" id="dzen" xmlns="http://www.w3.org/2000/svg"><g clip-path="url(#a)"><path d="M41.75 41.75c-5.5 5.675-5.9 12.75-6.375 28.25 14.45 0 24.425-.05 29.575-5.05 5-5.15 5.05-15.6 5.05-29.575-15.5.5-22.575.875-28.25 6.375ZM0 35.375C0 49.35.05 59.8 5.05 64.95c5.15 5 15.125 5.05 29.575 5.05-.5-15.5-.875-22.575-6.375-28.25-5.675-5.5-12.75-5.9-28.25-6.375ZM34.625 0C20.2 0 10.2.05 5.05 5.05.05 10.2 0 20.65 0 34.625c15.5-.5 22.575-.875 28.25-6.375 5.5-5.675 5.9-12.75 6.375-28.25Zm7.125 28.25c-5.5-5.675-5.9-12.75-6.375-28.25C49.825 0 59.8.05 64.95 5.05c5 5.15 5.05 15.6 5.05 29.575-15.5-.5-22.575-.875-28.25-6.375Z" fill="#2C3036"/><path d="M70 35.375v-.75c-15.5-.5-22.575-.875-28.25-6.375-5.5-5.675-5.9-12.75-6.375-28.25h-.75c-.5 15.5-.875 22.575-6.375 28.25-5.675 5.5-12.75 5.9-28.25 6.375v.75c15.5.5 22.575.875 28.25 6.375 5.5 5.675 5.9 12.75 6.375 28.25h.75c.5-15.5.875-22.575 6.375-28.25 5.675-5.5 12.75-5.9 28.25-6.375Z" fill="#fff"/></g><defs><clipPath id="a"><path fill="#fff" d="M0 0h70v70H0z"/></clipPath></defs></symbol><symbol fill="none" viewBox="0 0 32 32" id="earn" xmlns="http://www.w3.org/2000/svg"><path d="M5.333 18.16v.6c0 2.44 4.387 5.16 10.667 5.16s10.667-2.72 10.667-5.16v-.6c-2.414 1.88-6.254 3.093-10.667 3.093s-8.253-1.2-10.667-3.093Z" fill="currentColor"/><path d="M5.333 12.733v.68c0 2.44 4.387 5.16 10.667 5.16s10.667-2.72 10.667-5.16v-.68c-2.414 1.88-6.254 3.094-10.667 3.094s-8.253-1.2-10.667-3.094Z" fill="currentColor"/><path d="M16 2.667C10.693 2.667 5.333 4.493 5.333 8c0 2.44 4.387 5.16 10.667 5.16S26.667 10.44 26.667 8c0-3.507-5.36-5.333-10.667-5.333ZM5.333 23.493V24c0 3.507 5.36 5.333 10.667 5.333 5.307 0 10.667-1.826 10.667-5.333v-.507c-2.414 1.88-6.254 3.094-10.667 3.094s-8.253-1.2-10.667-3.094Z" fill="currentColor"/></symbol><symbol fill="none" viewBox="0 0 32 32" id="friends" xmlns="http://www.w3.org/2000/svg"><path d="M15 18a4 4 0 0 1 4 4c0 1.93-1.184 3.46-2.822 4.46C14.54 27.456 12.35 28 10 28s-4.54-.544-6.178-1.54C2.182 25.46 1 23.93 1 22a4 4 0 0 1 4-4h10Zm13.306.016A3 3 0 0 1 31 21c0 1.542-.94 2.818-2.204 3.66-1.27.848-2.97 1.34-4.796 1.34-1.4 0-2.72-.292-3.834-.806A6.484 6.484 0 0 0 20.998 22c0-1.518-.568-2.9-1.498-3.958.163-.027.33-.04.5-.042h8l.306.016ZM10 5a5.5 5.5 0 1 1 0 11 5.5 5.5 0 0 1 0-11Zm14.004 1.994a4.504 4.504 0 1 1 .19 9.006 4.504 4.504 0 0 1-.19-9.006Z" fill="currentColor"/></symbol><symbol fill="none" viewBox="0 0 32 32" id="game" xmlns="http://www.w3.org/2000/svg"><path fill-rule="evenodd" clip-rule="evenodd" d="m13.867 5.714-.804-.537A7.061 7.061 0 0 0 9.143 4h-.979c-.648 0-1.3.038-1.91.242C2.442 5.52-.18 10.188.01 20.777c.038 2.134.566 4.491 2.604 5.412a5.37 5.37 0 0 0 2.229.477 4.576 4.576 0 0 0 2.448-.66c.656-.405 1.232-.931 1.808-1.457.71-.65 1.42-1.3 2.278-1.72a6.872 6.872 0 0 1 3.024-.696h3.198c1.053 0 2.09.239 3.024.695.857.422 1.568 1.071 2.28 1.721.576.526 1.152 1.052 1.805 1.457.623.387 1.431.66 2.449.66a5.37 5.37 0 0 0 2.229-.477c2.038-.92 2.566-3.28 2.604-5.412.19-10.59-2.432-15.257-6.244-16.534C25.135 4.038 24.479 4 23.834 4h-.98a7.06 7.06 0 0 0-3.919 1.179l-.803.535a3.847 3.847 0 0 1-2.133.64 3.847 3.847 0 0 1-2.133-.64Zm9.732 4.33c.318 0 .623.12.848.332.225.213.352.501.352.802 0 .3-.127.588-.352.801-.225.213-.53.332-.848.332-.319 0-.624-.12-.849-.332a1.102 1.102 0 0 1-.351-.801c0-.301.126-.59.351-.802.225-.212.53-.332.849-.332Zm-14.8.378c.319 0 .624.12.85.332.224.213.35.5.35.801v1.134h1.2c.319 0 .624.12.849.332.225.212.351.5.351.801 0 .3-.126.589-.351.801-.225.213-.53.332-.848.332H10v1.134c0 .3-.127.588-.352.801-.225.212-.53.332-.848.332-.319 0-.624-.12-.849-.332a1.102 1.102 0 0 1-.351-.801v-1.134H6.4c-.318 0-.624-.12-.849-.332a1.102 1.102 0 0 1-.351-.801c0-.3.126-.589.351-.801.225-.213.53-.332.849-.332h1.2v-1.134c0-.3.126-.588.351-.801.225-.213.53-.332.849-.332Zm18.4 3.022c0 .3-.127.589-.352.802-.225.212-.53.332-.848.332-.319 0-.624-.12-.849-.332a1.103 1.103 0 0 1-.351-.802c0-.3.126-.589.351-.801.225-.213.53-.332.849-.332.318 0 .623.12.848.332.225.212.351.5.351.801Zm-6 1.133c.318 0 .623-.119.848-.331.225-.213.352-.501.352-.802 0-.3-.127-.589-.352-.801a1.237 1.237 0 0 0-.848-.332c-.318 0-.624.12-.849.332-.225.212-.351.5-.351.801 0 .3.126.589.351.802.225.212.53.332.849.332Zm3.6 1.134c0-.3-.127-.589-.352-.802a1.236 1.236 0 0 0-.848-.332c-.319 0-.624.12-.849.332-.225.213-.351.501-.351.802 0 .3.126.589.351.801.225.213.53.332.849.332.318 0 .623-.12.848-.332.225-.212.352-.5.352-.801Z" fill="currentColor"/></symbol><symbol fill="none" viewBox="0 0 251 270" id="gift" xmlns="http://www.w3.org/2000/svg"><path d="M.796 53.068C.053 60.328.45 67.743.36 75.04.276 81.73-.575 88.933.68 95.525c.137.717 1.389.717 1.526 0 1.26-6.605.404-13.786.323-20.484-.092-7.295.306-14.716-.436-21.973-.081-.787-1.217-.789-1.297 0ZM16.763 269.387c18.374.819 36.85.283 55.237.349 18.124.062 36.25.131 54.375.192 18.123.062 36.25.045 54.373.067 9.207.011 18.414 0 27.62-.005 9.273-.007 18.399-.556 27.619-1.058a.621.621 0 0 0 0-1.242c-9.22-.502-18.344-1.051-27.619-1.056-9.206-.007-18.411-.016-27.62-.006-18.123.021-36.25.006-54.373.066-18.125.062-36.251.13-54.374.194-18.39.064-36.864-.469-55.238.349-1.427.064-1.43 2.086 0 2.15Z" fill="#FE8D00"/><path d="M13.38 96.649c-1.29 28.237-.112 56.75.044 85.017.07 12.65.14 25.302.199 37.953.033 7.183.046 14.37.064 21.553.019 8.395-.685 17.176.266 25.51.984-.131 1.97-.262 2.954-.396-.083-.29-.166-.58-.247-.869-.322-1.132-2.25-1.269-2.489 0l-.164.869c-.398 2.111 2.73 2.557 2.953.396.858-8.343.047-17.118-.043-25.51-.074-6.964-.157-13.929-.23-20.897-.135-12.87-.268-25.74-.408-38.609-.31-28.274.44-56.788-1.17-85.017-.06-1.06-1.678-1.067-1.728 0ZM105.088 52.069c-1.041 28.787-.17 57.728-.047 86.532.109 25.025.251 50.049.311 75.073.019 8.041.037 16.082.049 24.122.019 9.503-.789 19.445.261 28.886.984-.131 1.969-.263 2.953-.396l-.247-1.115c-.256-1.156-2.305-1.248-2.49 0l-.164 1.115c-.313 2.124 2.732 2.551 2.953.396.842-8.22.087-16.833.018-25.1-.063-7.486-.127-14.974-.194-22.46-.114-12.992-.216-25.982-.329-38.973-.211-25.024-.434-50.048-.629-75.073-.139-17.656.079-35.365-.718-53.006-.045-1.063-1.688-1.068-1.727-.001ZM146.757 52.069c-1.043 28.787-.171 57.728-.047 86.532.107 25.025.247 50.049.31 75.073.019 8.041.036 16.082.05 24.122.017 9.503-.79 19.445.261 28.886.984-.131 1.97-.263 2.954-.396l-.248-1.115c-.256-1.156-2.303-1.248-2.488 0-.056.372-.109.744-.164 1.115-.315 2.124 2.732 2.551 2.951.396.843-8.22.087-16.833.018-25.1-.063-7.486-.127-14.974-.192-22.46-.116-12.992-.218-25.982-.329-38.973-.213-25.024-.436-50.048-.631-75.073-.137-17.656.081-35.365-.716-53.006-.048-1.063-1.691-1.068-1.729-.001ZM237.225 267.8c1.244-28.635.559-57.514.537-86.178-.009-12.939.005-25.88-.042-38.819-.028-7.327-.055-14.654-.052-21.981.005-7.857 1.173-16.759-.626-24.433-.221-.937-1.748-.937-1.968 0-1.8 7.673-.633 16.576-.628 24.433.004 7.103-.024 14.206-.048 21.309-.048 13.163-.036 26.327-.045 39.491-.021 28.664-.705 57.543.536 86.178.062 1.459 2.272 1.462 2.336 0Z" fill="#FE8D00"/><path d="M2.846 53.121c31.928.99 63.967.535 95.909.553 32.257.021 64.517.044 96.773-.057 18.137-.057 36.325.301 54.436-.741a.808.808 0 0 0 0-1.616c-31.846-1.834-64.016-.792-95.909-.806-32.257-.013-64.518-.076-96.773.089-18.133.091-36.311-.089-54.436.471-1.401.044-1.403 2.064 0 2.107ZM106.403 95.71c.014-.216.04-.403.061-.603-16.472.026-32.945.057-49.417.08-18.054.024-36.153-.301-54.202.267-1.575.05-1.578 2.339 0 2.387 31.789 1.003 63.696.26 95.498.344 2.836.009 5.67.005 8.506.01-.316-.822-.496-1.685-.446-2.485ZM248.9 95.815c-16.01-1.11-32.139-.748-48.177-.748l-47.317-.005c-1.995 0-3.995.005-5.99.007a8.763 8.763 0 0 1 .194 3.15c15.696.006 31.393.013 47.09.013 18.037-.002 36.196.496 54.2-.75a.833.833 0 0 0 0-1.667ZM106.836 107.377v-2.311c-12.712-.349-25.485.007-38.164.021l-26.55.026c-9.1.008-18.345-.369-27.41.508-1.034.1-1.036 1.434 0 1.535 9.063.876 18.31.499 27.41.508l26.55.026c12.691.014 25.476.37 38.2.021-.005-.115-.036-.222-.036-.334ZM160.475 106.33c24.902 1.628 50.038 1.161 74.981 1.514 1.256.019 1.256-1.848 0-1.874-24.938-.479-50.042-1.785-74.981-.987-.92.028-.909 1.288 0 1.347ZM227.533 202.438c-.393 9.489-.478 19.011-.562 28.508-.078 8.798-1.138 18.336.273 27.026.112.699 1.371.699 1.484 0 1.409-8.68.351-18.235.273-27.026-.085-9.497-.171-19.019-.564-28.508-.021-.545-.88-.545-.904 0ZM168.788 258.755c9.285.569 18.576.757 27.878.88 8.578.111 17.928 1.234 26.402-.18.764-.126.748-1.312 0-1.453-8.436-1.606-17.828-.687-26.402-.768-9.298-.088-18.586-.109-27.878.254-.866.035-.859 1.215 0 1.267ZM21.645 190.349c-1.107 9.187-.467 18.772-.342 28.007.058 4.527.162 9.052.249 13.581.081 4.25-.334 8.815.624 12.965.192.828 1.62.864 1.785 0 .804-4.197.228-8.706.148-12.965-.088-4.81-.16-9.621-.282-14.429-.226-9.011.03-18.342-1.385-27.258-.074-.453-.75-.288-.797.099ZM79.238 59.192c.283 0 .283-.406 0-.406-.284 0-.284.406 0 .406Z" fill="#FE8D00"/><path d="M249.052 52.27c-.617 7.395-.271 14.97-.372 22.391-.093 6.86-.78 14.04.421 20.823.1.558 1.099.558 1.198 0 1.202-6.79.514-13.956.422-20.823-.1-7.42.245-15-.374-22.39-.064-.788-1.227-.788-1.295 0ZM126.667 11.793c-4.792-11.718-22.021-10.034-24.628 2.385-1.38 6.573 1.741 13.024 5.846 17.96 2.811 3.38 6.134 6.257 9.23 9.363 3.201 3.21 5.596 6.696 7.961 10.538.578.937 2.221.361 1.891-.764-3.002-10.178-14.222-15.588-19.619-24.277-3.347-5.386-4.754-13.332.508-18.087 5.658-5.11 13.596-2.56 17.17 3.538.469.806 2.029.287 1.641-.656Z" fill="#FE8D00"/><path d="M124.416 16.447c3.292-5.567 8.316-10.75 15.285-10.69 6.701.057 12.793 5.294 12.325 12.258-.484 7.187-6.373 12.453-11.146 17.177a3377.945 3377.945 0 0 0-15.613 15.558c-1.135 1.137.653 2.822 1.765 1.718 7.331-7.275 15.405-14.305 21.933-22.321 4.266-5.239 7.396-12.754 3.787-19.2-7.308-13.046-25.179-6.82-29.905 4.875-.361.893 1.114 1.395 1.569.625Z" fill="#FE8D00"/><path d="M125.934 50.36C109.712 31.482 88.111 15.015 65.12 5.179 55.105.893 41.54-3.264 31.793 3.812c-9.489 6.885-10.061 20.576-4.369 30.006 7.634 12.64 23.398 17.952 37.395 19.1 1.292.105 1.607-1.975.311-2.222-12.592-2.406-25.84-5.023-33.993-15.986C23.843 24.903 24.381 8 37.705 3.524c10.62-3.568 23.157 1.992 32.589 6.735C79.79 15.033 88.808 20.777 97.414 27c9.764 7.06 19.815 14.951 27.827 24.008.389.446 1.102-.172.693-.646Z" fill="#FE8D00"/><path d="M99.83 37.003c-7.669-6.462-16.549-11.665-25.687-15.754-6.395-2.863-16.32-6.086-20.96 1.478-4.369 7.119 1.696 14.902 6.951 19.429 6.442 5.552 15.114 9.793 23.72 10.113 1.151.043 1.443-1.73.276-1.974-6.763-1.414-12.939-3.092-18.747-7.049-5.617-3.826-16.95-14.5-8.337-21.118 6.528-5.017 17.33 1.407 23.423 4.524 6.5 3.324 12.448 7.325 18.388 11.546.704.5 1.674-.607.974-1.195ZM105.727 40.656c2.48 2.18 5.349 3.934 8.128 5.702 2.715 1.725 5.586 4.034 8.711 4.872a.58.58 0 0 0 .593-.95c-2.046-2.256-5.164-3.635-7.772-5.17-3.002-1.767-6.031-3.627-9.274-4.914-.28-.107-.685.199-.386.46ZM126.754 51.007c6.758-7.64 15.102-14.408 23.197-20.577 8.892-6.777 18.27-12.965 28.115-18.275 9.127-4.922 19.979-10.182 30.607-9.617 14.568.775 20.714 16.111 14.601 28.288-6.97 13.888-22.557 17.222-36.413 19.87-1.279.246-.996 2.328.312 2.221 12.712-1.042 26.612-5.415 34.923-15.628 6.974-8.57 8.788-21.234 1.491-30.248-8.268-10.215-22.983-7.225-33.635-3.12-11.27 4.344-21.729 10.812-31.593 17.708-11.957 8.359-22.805 17.677-32.304 28.733-.406.472.305 1.091.699.645Z" fill="#FE8D00"/><path d="M153.135 38.196c5.73-4.072 11.465-7.96 17.718-11.204 6.239-3.237 17.423-9.99 24.093-4.865 8.257 6.347-1.987 16.5-7.353 20.404-6.046 4.397-12.538 6.259-19.732 7.763-1.153.24-.888 2.018.277 1.973 8.37-.31 16.849-4.359 23.2-9.665 5.436-4.54 11.978-12.531 7.469-19.875-4.466-7.279-14.012-4.541-20.276-1.78-9.388 4.139-18.512 9.433-26.372 16.057-.69.582.263 1.699.976 1.192ZM145.878 40.2c-3.242 1.287-6.272 3.147-9.274 4.913-2.608 1.533-5.726 2.914-7.771 5.17a.58.58 0 0 0 .593.95c3.121-.838 6.004-3.152 8.71-4.872 2.781-1.77 5.65-3.52 8.128-5.702.296-.265-.102-.572-.386-.46Z" fill="#FE8D00"/></symbol><symbol fill="none" viewBox="0 0 32 32" id="home" xmlns="http://www.w3.org/2000/svg"><path d="M7 23.829v-9.772c0-.344.08-.67.24-.977.16-.308.38-.561.66-.76l6.75-4.886A2.22 2.22 0 0 1 16 7c.506 0 .956.145 1.35.434l6.75 4.886c.281.199.502.452.662.76.16.308.239.633.238.977v9.772c0 .597-.22 1.108-.662 1.534-.44.425-.97.638-1.588.637h-3.375c-.319 0-.586-.104-.801-.313a1.036 1.036 0 0 1-.324-.773v-5.428a1.03 1.03 0 0 0-.324-.773 1.115 1.115 0 0 0-.801-.313h-2.25c-.319 0-.586.104-.801.313a1.036 1.036 0 0 0-.324.773v5.428c0 .308-.108.566-.324.774a1.105 1.105 0 0 1-.801.312H9.25a2.205 2.205 0 0 1-1.588-.637A2.06 2.06 0 0 1 7 23.829Z" fill="currentColor"/></symbol><symbol fill="none" viewBox="0 0 32 32" id="info" xmlns="http://www.w3.org/2000/svg"><path d="M16 2a14 14 0 1 1 0 28 14 14 0 0 1 0-28Zm2.1 8.594c1.04 0 1.884-.719 1.884-1.79 0-1.073-.843-1.792-1.884-1.792-1.04 0-1.881.72-1.881 1.791 0 1.072.843 1.794 1.881 1.794m.366 11.253c0-.213.075-.769.03-1.088l-1.643 1.894c-.34.357-.766.607-.966.54a.406.406 0 0 1-.256-.459l2.738-8.656c.225-1.1-.39-2.1-1.697-2.228-1.375 0-3.406 1.397-4.64 3.172 0 .213-.041.737 0 1.056l1.643-1.893c.344-.357.737-.607.938-.538a.406.406 0 0 1 .243.503l-2.719 8.616c-.312 1.006.282 1.994 1.722 2.219 2.122 0 3.375-1.363 4.61-3.138h-.003Z" fill="currentColor"/></symbol><symbol fill="none" viewBox="0 0 32 32" id="lang" xmlns="http://www.w3.org/2000/svg"><path fill-rule="evenodd" clip-rule="evenodd" d="M29.333 10.666v16h-4.002l.002 4-6.666-4h-5.334v-16h16ZM18.667 5.333v4H12v12.8l-5.333 3.2.002-4H2.667v-16h16Zm3.45 9.333h-1.559l-2.958 8h1.406l.819-2.292h3.003l.824 2.292h1.49l-3.025-8Zm-.79 1.338c.12.406.25.808.386 1.208l.06.17.671 1.897h-2.241l.672-1.897c.188-.523.338-.982.451-1.378ZM9.98 7.492H8.648v.666H5.314v1.334h4.977c-.08 1.135-.368 2.158-.863 3.074a6.643 6.643 0 0 1-1.115-2.488l-.013-.06-1.304.28.098.407a7.933 7.933 0 0 0 1.534 3.007c-.787.848-1.913 1.444-3.402 1.783l-.056.013.29 1.301.397-.096C7.41 16.31 8.65 15.63 9.56 14.667c.638.55 1.428 1.07 2.37 1.563l.07.036v-1.518a10.02 10.02 0 0 1-1.632-1.145c.735-1.195 1.153-2.545 1.255-4.043l.005-.068H12V8.158H9.98v-.666Z" fill="#FE8D00"/></symbol><symbol fill="none" viewBox="0 0 32 32" id="language" xmlns="http://www.w3.org/2000/svg"><path fill-rule="evenodd" clip-rule="evenodd" d="M29.333 10.666v16h-4.002l.002 4-6.666-4h-5.334v-16h16ZM18.667 5.333v4H12v12.8l-5.333 3.2.002-4H2.667v-16h16Zm3.45 9.333h-1.559l-2.958 8h1.406l.819-2.292h3.003l.824 2.292h1.49l-3.025-8Zm-.79 1.338c.12.406.25.808.386 1.208l.06.17.671 1.897h-2.241l.672-1.897c.188-.523.338-.982.451-1.378ZM9.98 7.492H8.648v.666H5.314v1.334h4.977c-.08 1.135-.368 2.158-.863 3.074a6.643 6.643 0 0 1-1.115-2.488l-.013-.06-1.304.28.098.407a7.933 7.933 0 0 0 1.534 3.007c-.787.848-1.913 1.444-3.402 1.783l-.056.013.29 1.301.397-.096C7.41 16.31 8.65 15.63 9.56 14.667c.638.55 1.428 1.07 2.37 1.563l.07.036v-1.518a10.02 10.02 0 0 1-1.632-1.145c.735-1.195 1.153-2.545 1.255-4.043l.005-.068H12V8.158H9.98v-.666Z" fill="#FE8D00"/></symbol><symbol fill="none" viewBox="0 0 48 48" id="left" xmlns="http://www.w3.org/2000/svg"><path d="m30.768 34.84-2.122 2.12-11.558-11.555a1.992 1.992 0 0 1 0-2.826l11.558-11.56 2.12 2.12-10.848 10.85 10.85 10.85Z" fill="currentColor"/></symbol><symbol fill="none" viewBox="0 0 54 54" id="lock" xmlns="http://www.w3.org/2000/svg"><path d="M13.5 49.5c-1.238 0-2.296-.44-3.177-1.32C9.443 47.298 9.001 46.238 9 45V22.5c0-1.238.441-2.297 1.323-3.177.882-.88 1.941-1.322 3.177-1.323h2.25v-4.5c0-3.113 1.097-5.765 3.292-7.958C21.236 3.349 23.889 2.252 27 2.25c3.111-.002 5.764 1.096 7.96 3.292 2.197 2.196 3.293 4.848 3.29 7.958V18h2.25c1.237 0 2.297.441 3.18 1.323.881.882 1.322 1.941 1.32 3.177V45c0 1.237-.44 2.297-1.32 3.18-.881.881-1.941 1.322-3.18 1.32h-27Zm16.68-12.57c.88-.883 1.32-1.943 1.32-3.18s-.44-2.297-1.32-3.177c-.881-.88-1.941-1.322-3.18-1.323-1.239-.002-2.298.44-3.177 1.323s-1.32 1.943-1.323 3.177c-.003 1.234.438 2.294 1.323 3.18.885.884 1.944 1.325 3.177 1.32 1.233-.005 2.293-.445 3.18-1.32ZM20.25 18h13.5v-4.5c0-1.875-.656-3.469-1.969-4.781C30.47 7.406 28.875 6.75 27 6.75c-1.875 0-3.469.656-4.781 1.969-1.313 1.312-1.969 2.906-1.969 4.781V18Z" fill="#fff"/></symbol><symbol fill="none" viewBox="0 0 80 80" id="non" xmlns="http://www.w3.org/2000/svg"><path d="M40 6.667C21.6 6.667 6.667 21.6 6.667 40S21.6 73.334 40 73.334 73.333 58.4 73.333 40C73.333 21.6 58.4 6.667 40 6.667ZM13.333 40c0-14.733 11.934-26.666 26.667-26.666 6.167 0 11.833 2.1 16.333 5.633L18.967 56.334A26.333 26.333 0 0 1 13.333 40ZM40 66.667c-6.167 0-11.833-2.1-16.333-5.633l37.366-37.367A26.333 26.333 0 0 1 66.667 40c0 14.734-11.934 26.667-26.667 26.667Z" fill="#FE8D00"/></symbol><symbol fill="none" viewBox="0 0 32 32" id="profile" xmlns="http://www.w3.org/2000/svg"><path d="M16 20.232c5.785 0 10.666.94 10.666 4.567 0 3.627-4.913 4.535-10.666 4.535-5.783 0-10.667-.941-10.667-4.568S10.248 20.232 16 20.232Zm0-17.565A7.031 7.031 0 0 1 23.06 9.72 7.032 7.032 0 0 1 16 16.777a7.033 7.033 0 0 1-7.058-7.056A7.032 7.032 0 0 1 16 2.667Z" fill="currentColor"/></symbol><symbol fill="none" viewBox="0 0 32 32" id="rub" xmlns="http://www.w3.org/2000/svg"><rect width="32" height="32" rx="8" fill="#fff" fill-opacity=".04"/><path fill-rule="evenodd" clip-rule="evenodd" d="M16.104 7c2.16 0 3.744.44 4.752 1.32 1.023.88 1.536 2.112 1.536 3.696 0 .992-.224 1.888-.672 2.688-.448.8-1.16 1.432-2.136 1.896-.96.464-2.224.696-3.792.696h-1.729v1.968h3.792v2.04h-3.792v2.832h-3.07v-2.832H9v-2.04h1.992v-1.968H9v-2.544h1.992V7h5.111Zm-2.04 7.752h1.392c.784 0 1.456-.089 2.016-.265.576-.176 1.016-.456 1.32-.84.32-.383.48-.896.48-1.536 0-.863-.272-1.504-.816-1.92-.544-.432-1.392-.647-2.544-.647h-1.849v5.208Z" fill="#FE8D00"/></symbol><symbol fill="none" viewBox="0 0 130 22" id="rutube" xmlns="http://www.w3.org/2000/svg"><g clip-path="url(#a)"><path d="M13.002 13.302h-9.13V9.575h9.13c.533 0 .904.096 1.09.264.186.167.301.478.301.931v1.339c0 .478-.115.788-.301.956-.186.167-.557.239-1.09.239v-.002Zm.626-7.24H0v15.937h3.872v-5.185h7.135L14.393 22h4.336l-3.733-5.21c1.376-.21 1.994-.645 2.504-1.362.51-.716.765-1.863.765-3.393V10.84c0-.907-.093-1.624-.256-2.174a3.648 3.648 0 0 0-.834-1.457 3.752 3.752 0 0 0-1.438-.884c-.556-.168-1.252-.263-2.11-.263v.001ZM24.148 17.292V6.06h-3.877v11.135c0 .907.07 1.649.232 2.198.163.574.441 1.052.86 1.457.395.43.86.718 1.415.885.558.19 1.253.263 2.136.263h9.002c.86 0 1.556-.071 2.113-.263a3.248 3.248 0 0 0 1.439-.885c.395-.406.673-.884.835-1.457.163-.55.256-1.29.256-2.198V6.06h-3.877v11.23c0 .479-.115.79-.301.957-.187.167-.558.239-1.092.239h-7.748c-.557 0-.929-.072-1.114-.24-.186-.166-.278-.477-.278-.955h-.001ZM52.608 22V9.572h7.324V6.06H41.424v3.512h7.324v12.426h3.86ZM66.674 17.292V6.06h-3.877v11.135c0 .907.07 1.649.232 2.198a3.17 3.17 0 0 0 .86 1.457c.394.43.858.718 1.415.885.557.19 1.252.263 2.136.263h9.002c.86 0 1.556-.071 2.112-.263a3.248 3.248 0 0 0 1.44-.885c.394-.406.672-.884.835-1.457.163-.55.256-1.29.256-2.198V6.06h-3.877v11.23c0 .479-.115.79-.302.957-.185.167-.558.239-1.091.239h-7.748c-.558 0-.93-.072-1.114-.24-.187-.166-.278-.477-.278-.955h-.001ZM87.83 18.487V15.62h9.178c.534 0 .906.096 1.093.263.186.168.302.479.302.932v.478c0 .478-.116.789-.302.956-.185.168-.559.24-1.093.24H87.83v-.002Zm0-6.046V9.574h8.245c.558 0 .93.096 1.115.264.187.167.279.478.279.932v.478c0 .478-.094.788-.279.956-.185.167-.558.239-1.115.239H87.83v-.002Zm13.498-1.745v-.31c0-1.481-.372-2.58-1.115-3.273-.744-.693-1.93-1.052-3.51-1.052H83.949v15.938h13.663c1.58 0 2.767-.335 3.51-1.027.744-.693 1.115-1.792 1.115-3.274v-.335c0-1.481-.371-2.533-1.115-3.154a3.514 3.514 0 0 0-.419-.24c-.139-.07-.492-.167-.746-.262.511-.287.86-.669 1.069-1.1.186-.43.302-1.075.302-1.912v.002ZM108.094 9.573h13.974V6.06H104.22v15.938h17.848v-3.512h-13.974v-2.7h12.194v-3.513h-12.194V9.573Z" fill="#fff"/><path d="M127.025 6.061c1.643 0 2.975-1.357 2.975-3.03C130 1.357 128.668 0 127.025 0c-1.642 0-2.974 1.357-2.974 3.03 0 1.674 1.332 3.031 2.974 3.031Z" fill="#ED143B"/></g><defs><clipPath id="a"><path fill="#fff" d="M0 0h130v22H0z"/></clipPath></defs></symbol><symbol fill="none" viewBox="0 0 252 351" id="sand-clock" xmlns="http://www.w3.org/2000/svg"><path d="M54.14 252.856c-7.574 2.732-14.91 4.843-21.47 5.355a136.672 136.672 0 0 0-3.161 13.564l67.056 17.967 14.194-52.975c-13.256-3.549-35.834 8.596-56.62 16.089Z" fill="#FE8D00"/><path d="m110.756 236.769-14.195 52.975 67.057 17.968a137.582 137.582 0 0 0 4.043-13.328c-20.318-13.944-38.825-52.77-56.905-57.615ZM122.072 174.406l10.064 2.696c1.123-4.191 37.865-9.277 65.357-39.723-15.128-3.564-35.827-10.13-48.204-21.172-17.217-15.362-52.874-19.336-65.748-20.29 4.783 47.213 39.757 73.915 38.531 78.489Z" fill="#FE8D00"/><path d="M113.729 146.434a4.677 4.677 0 0 1-2.929-2.328c-13.728-25.737-17.25-53.25-10.471-81.776a4.697 4.697 0 0 1 5.654-3.482c2.589.633 4.08 3.13 3.482 5.654-6.233 26.233-2.996 51.528 9.621 75.187a4.694 4.694 0 0 1-1.933 6.351 4.669 4.669 0 0 1-3.424.394Z" fill="#fff" opacity=".5"/><path d="M113.465 172.099c-.248.924.988 2.755 3.147 5.471 3.228-1.273 5.213-2.241 5.46-3.164.248-.924-.988-2.755-3.146-5.472-3.228 1.274-5.214 2.242-5.461 3.165ZM129.827 176.483l-5.443-1.458-17.682 65.989 5.443 1.459 17.682-65.99ZM239.702 42.307 93.892 3.237C87.22 1.45 80.36 5.41 78.572 12.085c-1.788 6.674 2.172 13.534 8.846 15.322l145.809 39.07c6.674 1.787 13.534-2.173 15.322-8.847 1.788-6.674-2.172-13.533-8.846-15.322ZM225.722 69.93 94.119 34.669a4 4 0 0 0-4.9 2.828l-1.483 5.537 139.331 37.334 1.484-5.537a4 4 0 0 0-2.829-4.9ZM12.085 308.553l145.809 39.069c6.674 1.789 13.534-2.172 15.322-8.846 1.788-6.673-2.172-13.533-8.846-15.321l-145.81-39.07c-6.673-1.788-13.533 2.172-15.321 8.846-1.788 6.674 2.172 13.534 8.846 15.322ZM24.15 280.618l139.262 37.315 2.569-9.588L26.72 271.03l-2.57 9.588Z" fill="#FE8D00"/><path d="M165.39 311.102 26.273 273.825l.46-2.552c12.202-67.543 63.09-86.635 84.818-94.789 2.74-1.028 5.769-2.166 7.291-2.944-.927-1.434-2.983-3.934-4.842-6.194-14.741-17.926-49.265-59.904-26.06-124.501l.878-2.438 139.117 37.276-.46 2.55c-12.205 67.545-63.089 86.637-84.818 94.792-2.74 1.027-5.769 2.165-7.291 2.943.927 1.434 2.983 3.935 4.842 6.194 14.741 17.927 49.265 59.904 26.06 124.499l-.878 2.441ZM32.762 269.733l129.058 34.581c20.39-60.204-12.017-99.615-25.963-116.572-5.061-6.155-7.155-8.701-6.441-11.366.714-2.665 3.803-3.825 11.262-6.625 20.555-7.712 68.326-25.639 80.77-87.972L92.39 47.198C72 107.4 104.407 146.812 118.352 163.769c5.062 6.155 7.156 8.701 6.441 11.368-.714 2.666-3.803 3.825-11.261 6.623-20.558 7.712-68.33 25.639-80.77 87.973Z" fill="#FE8D00"/></symbol><symbol fill="none" viewBox="0 0 40 40" id="shop" xmlns="http://www.w3.org/2000/svg"><path d="M24.442 3.883a1.25 1.25 0 0 1 1.676.559l3.669 7.336c2.255.174 3.67.617 4.583 1.745.727.899.96 2.015.875 3.56H4.755c-.085-1.545.15-2.661.875-3.56.913-1.13 2.328-1.571 4.583-1.745l3.669-7.336a1.25 1.25 0 0 1 2.236 1.116l-3.058 6.117c.803-.006 1.684-.008 2.643-.008h8.594c.959-.001 1.84.001 2.643.008l-3.058-6.117a1.25 1.25 0 0 1 .56-1.675Z" fill="currentColor"/><path fill-rule="evenodd" clip-rule="evenodd" d="M5.925 23.762c-.307-1.388-.59-2.781-.85-4.179h29.85a123.27 123.27 0 0 1-.85 4.179l-.715 3.333c-.812 3.788-1.217 5.682-2.592 6.793C29.393 35 27.457 35 23.583 35h-7.166c-3.874 0-5.81 0-7.184-1.112-1.376-1.111-1.783-3.005-2.593-6.793l-.715-3.333Zm10.742-1.679a1.25 1.25 0 1 0 0 2.5h6.666a1.25 1.25 0 1 0 0-2.5h-6.666Z" fill="currentColor"/></symbol><symbol fill="none" viewBox="0 0 32 32" id="sound" xmlns="http://www.w3.org/2000/svg"><path fill-rule="evenodd" clip-rule="evenodd" d="M25.293 9.293a1 1 0 0 1 1.414 0l.002.003.004.002.01.01.026.026.083.092c.067.076.16.184.268.322a9.16 9.16 0 0 1 0 11.17c-.112.143-.23.28-.352.414l-.027.026-.008.01-.004.002-.001.002-.68-.678.68.68a1 1 0 0 1-1.415-1.414l-.001.001-.003.001.007-.006.044-.048c.043-.047.104-.12.185-.223a7.16 7.16 0 0 0 0-8.704 3.998 3.998 0 0 0-.229-.27l-.007-.007a1 1 0 0 1 .004-1.411Zm-7.91-4.765C18.933 3.505 21 4.618 21 6.476v19.048c0 1.858-2.067 2.97-3.617 1.948l-8-5.274a.334.334 0 0 0-.183-.056H5.333a3.667 3.667 0 0 1-3.666-3.666v-4.952a3.667 3.667 0 0 1 3.666-3.667H9.2c.065 0 .13-.019.184-.055l7.999-5.274Z" fill="#FE8D00"/></symbol><symbol fill="none" viewBox="0 0 40 40" id="trophy" xmlns="http://www.w3.org/2000/svg"><path fill-rule="evenodd" clip-rule="evenodd" d="M25.824 1.174C24.477.994 22.558.834 20 .834c-2.558 0-4.476.16-5.823.34l.083.192c.195.441.484 1.089.861 1.902 1.022 2.203 2.1 4.379 3.236 6.525l.116.22a90.076 90.076 0 0 1 3.055 0l.117-.22a139.968 139.968 0 0 0 3.236-6.525c.322-.694.637-1.392.944-2.094ZM3.196 13.537c-.447-.652-.546-1.479-.213-2.195 2.725-5.852 8.684-9.675 8.684-9.675s2.777 6.623 7.212 14.216a12.5 12.5 0 0 0-9.46 5.792 103.332 103.332 0 0 1-6.223-8.138Zm27.386 8.139a103.347 103.347 0 0 0 6.221-8.14c.447-.651.546-1.478.213-2.194-2.724-5.852-8.683-9.675-8.683-9.675S25.555 8.29 21.12 15.883a12.5 12.5 0 0 1 9.46 5.792M20 17.917c-5.753 0-10.417 4.663-10.417 10.416 0 5.754 4.664 10.417 10.417 10.417s10.417-4.663 10.417-10.417c0-5.753-4.664-10.416-10.417-10.416Zm.925 5.116 1.258 2.427 2.684.528a1.041 1.041 0 0 1 .573 1.719l-1.907 2.12.35 2.83a1.042 1.042 0 0 1-1.5 1.06L20 32.527l-2.383 1.19a1.04 1.04 0 0 1-1.5-1.06l.35-2.83-1.907-2.12a1.04 1.04 0 0 1 .573-1.719l2.684-.528 1.258-2.428a1.042 1.042 0 0 1 1.85.001Z" fill="currentColor"/></symbol><symbol fill="none" viewBox="0 0 70 70" id="vk" xmlns="http://www.w3.org/2000/svg"><path d="M0 33.6C0 17.76 0 9.841 4.92 4.92 9.842 0 17.76 0 33.6 0h2.8c15.84 0 23.759 0 28.68 4.92C70 9.842 70 17.76 70 33.6v2.8c0 15.84 0 23.759-4.92 28.68C60.158 70 52.24 70 36.4 70h-2.8c-15.84 0-23.759 0-28.68-4.92C0 60.158 0 52.24 0 36.4v-2.8Z" fill="#07F"/><path d="M37.246 50.43c-15.954 0-25.054-10.937-25.434-29.137h7.992c.263 13.358 6.154 19.017 10.82 20.183V21.293h7.526v11.52c4.608-.495 9.45-5.745 11.083-11.52h7.525C55.504 28.41 50.254 33.66 46.52 35.818c3.734 1.75 9.713 6.33 11.988 14.612h-8.283c-1.78-5.541-6.212-9.829-12.075-10.412V50.43h-.904Z" fill="#fff"/></symbol><symbol fill="none" viewBox="0 0 41 33" id="x2" xmlns="http://www.w3.org/2000/svg"><path d="M7.812 9.721a1 1 0 0 0 .534-.919l-.263-7.767a1 1 0 0 1 1.499-.9l3.92 2.264a1 1 0 0 1 .5.894l-.089 3.214a1 1 0 0 0 1.515.885l2.787-1.677a1 1 0 0 1 1.015-.01l3.919 2.263a1 1 0 0 1-.04 1.754l-6.935 3.594a1 1 0 0 0-.538.932l.367 8.224a1 1 0 0 1-1.5.91l-3.907-2.255a1 1 0 0 1-.5-.883l.063-3.742a1 1 0 0 0-1.516-.874l-3.198 1.928a1 1 0 0 1-1.016.01L.5 15.298a1 1 0 0 1 .035-1.752l7.277-3.825ZM31.875 32.257a1 1 0 0 1-1.366.366l-12.6-7.274a1 1 0 0 1-.366-1.366l1.322-2.29a1 1 0 0 1 .602-.465l7.241-1.984a89.742 89.742 0 0 0 3.774-1.17c.922-.309 1.623-.618 2.103-.93.48-.31.858-.705 1.133-1.182.338-.586.394-1.118.166-1.598-.227-.48-.598-.867-1.11-1.164-.622-.358-1.357-.542-2.204-.551-.593-.01-1.28.044-2.06.158a1.034 1.034 0 0 1-1.176-.82l-.588-3.173a.97.97 0 0 1 .782-1.143c.593-.1 1.194-.18 1.804-.24.947-.101 1.964-.042 3.05.177 1.086.219 2.282.705 3.588 1.459 1.342.775 2.369 1.68 3.08 2.714.72 1.04 1.114 2.126 1.18 3.258.073 1.122-.19 2.201-.787 3.237-.66 1.143-1.462 2.043-2.406 2.7-.929.652-2.072 1.187-3.43 1.604-1.351.408-2.98.818-4.888 1.23l-2.147.452a.108.108 0 0 0-.031.199l6.51 3.759a1 1 0 0 1 .366 1.366l-1.542 2.671Z" fill="#fff"/></symbol></svg>