<svg width="251" height="270" viewBox="0 0 251 270" fill="none" xmlns="http://www.w3.org/2000/svg">
<path d="M0.796222 53.0675C0.0526201 60.3287 0.450377 67.7437 0.358724 75.0412C0.275717 81.7285 -0.575147 88.9326 0.68033 95.5249C0.816945 96.2422 2.069 96.2422 2.20561 95.5249C3.46628 88.9205 2.61029 81.7389 2.52901 75.0412C2.43736 67.7455 2.83508 60.3252 2.0932 53.0675C2.01193 52.2811 0.87577 52.2794 0.796222 53.0675Z" fill="#FE8D00"/>
<path d="M16.7631 269.387C35.137 270.206 53.6128 269.67 72.0005 269.736C90.1237 269.798 108.25 269.867 126.375 269.928C144.498 269.99 162.625 269.973 180.748 269.995C189.955 270.006 199.162 269.995 208.368 269.99C217.641 269.983 226.767 269.434 235.987 268.932C236.831 268.887 236.833 267.738 235.987 267.69C226.767 267.188 217.643 266.639 208.368 266.634C199.162 266.627 189.957 266.618 180.748 266.628C162.625 266.649 144.498 266.634 126.375 266.694C108.25 266.756 90.1237 266.824 72.0005 266.888C53.6111 266.952 35.137 266.419 16.7631 267.237C15.3364 267.301 15.3329 269.323 16.7631 269.387Z" fill="#FE8D00"/>
<path d="M13.3806 96.6488C12.0905 124.886 13.2682 153.399 13.4239 181.666C13.4948 194.316 13.5639 206.968 13.6227 219.619C13.6556 226.802 13.6694 233.989 13.6867 241.172C13.7057 249.567 13.002 258.348 13.9531 266.682C14.9371 266.551 15.9227 266.42 16.9067 266.286C16.8237 265.996 16.7408 265.706 16.6595 265.417C16.3378 264.285 14.4096 264.148 14.171 265.417C14.1174 265.706 14.062 265.996 14.0066 266.286C13.6089 268.397 16.7372 268.843 16.9603 266.682C17.818 258.339 17.007 249.564 16.9171 241.172C16.8428 234.208 16.7598 227.243 16.6871 220.275C16.5522 207.405 16.419 194.535 16.279 181.666C15.9694 153.392 16.7182 124.878 15.1082 96.6488C15.0494 95.5893 13.4308 95.5824 13.3806 96.6488Z" fill="#FE8D00"/>
<path d="M105.088 52.0687C104.047 80.8558 104.918 109.797 105.041 138.601C105.15 163.626 105.292 188.65 105.352 213.674C105.371 221.715 105.389 229.756 105.401 237.796C105.42 247.299 104.612 257.241 105.662 266.682C106.646 266.551 107.631 266.419 108.615 266.286C108.532 265.915 108.451 265.543 108.368 265.171C108.112 264.015 106.063 263.923 105.878 265.171C105.824 265.543 105.769 265.915 105.714 266.286C105.401 268.41 108.446 268.837 108.667 266.682C109.509 258.462 108.754 249.849 108.685 241.582C108.622 234.096 108.558 226.608 108.491 219.122C108.377 206.13 108.275 193.14 108.162 180.149C107.951 155.125 107.728 130.101 107.533 105.076C107.394 87.4204 107.612 69.7109 106.815 52.0704C106.77 51.0074 105.127 51.0022 105.088 52.0687Z" fill="#FE8D00"/>
<path d="M146.757 52.0687C145.714 80.8558 146.586 109.797 146.71 138.601C146.817 163.626 146.957 188.65 147.02 213.674C147.039 221.715 147.056 229.756 147.07 237.796C147.087 247.299 146.28 257.241 147.331 266.682C148.315 266.551 149.301 266.419 150.285 266.286C150.202 265.915 150.119 265.543 150.037 265.171C149.781 264.015 147.734 263.923 147.549 265.171C147.493 265.543 147.44 265.915 147.385 266.286C147.07 268.41 150.117 268.837 150.336 266.682C151.179 258.462 150.423 249.849 150.354 241.582C150.291 234.096 150.227 226.608 150.162 219.122C150.046 206.13 149.944 193.14 149.833 180.149C149.62 155.125 149.397 130.101 149.202 105.076C149.065 87.4204 149.283 69.7109 148.486 52.0704C148.438 51.0074 146.795 51.0022 146.757 52.0687Z" fill="#FE8D00"/>
<path d="M237.225 267.8C238.469 239.165 237.784 210.286 237.762 181.622C237.753 168.683 237.767 155.742 237.72 142.803C237.692 135.476 237.665 128.149 237.668 120.822C237.673 112.965 238.841 104.063 237.042 96.3891C236.821 95.4523 235.294 95.4523 235.074 96.3891C233.274 104.062 234.441 112.965 234.446 120.822C234.45 127.925 234.422 135.028 234.398 142.131C234.35 155.294 234.362 168.458 234.353 181.622C234.332 210.286 233.648 239.165 234.889 267.8C234.951 269.259 237.161 269.262 237.225 267.8Z" fill="#FE8D00"/>
<path d="M2.84564 53.1214C34.7738 54.1101 66.8127 53.6555 98.7547 53.6745C131.012 53.6953 163.272 53.7177 195.528 53.6174C213.665 53.5604 231.853 53.9182 249.964 52.876C251.051 52.812 251.053 51.3238 249.964 51.2599C218.118 49.426 185.948 50.4683 154.055 50.4544C121.798 50.4406 89.5375 50.3784 57.2825 50.5426C39.149 50.6342 20.9705 50.4544 2.84564 51.0145C1.4449 51.0577 1.44317 53.0782 2.84564 53.1214Z" fill="#FE8D00"/>
<path d="M106.403 95.7102C106.417 95.4941 106.443 95.3074 106.464 95.1069C89.9922 95.1329 73.5188 95.164 57.0471 95.1864C38.9932 95.2106 20.8942 94.8857 2.84544 95.4543C1.27005 95.5045 1.26659 97.7929 2.84544 97.8413C34.6336 98.8438 66.5411 98.1005 98.343 98.1852C101.179 98.1939 104.013 98.1904 106.849 98.1956C106.533 97.3729 106.353 96.5104 106.403 95.7102Z" fill="#FE8D00"/>
<path d="M248.9 95.8153C232.89 94.7057 216.761 95.0669 200.723 95.0669L153.406 95.0618C151.411 95.0618 149.411 95.0669 147.416 95.0687C147.67 96.1299 147.741 97.1929 147.61 98.2196C163.306 98.2248 179.003 98.2317 194.7 98.2317C212.737 98.23 230.896 98.7278 248.9 97.4816C250.023 97.4072 250.024 95.8931 248.9 95.8153Z" fill="#FE8D00"/>
<path d="M106.836 107.377V105.066C94.1237 104.717 81.3509 105.073 68.6717 105.087C59.8211 105.095 50.9705 105.104 42.1217 105.113C33.0221 105.121 23.7771 104.744 14.7121 105.621C13.678 105.721 13.6762 107.055 14.7121 107.156C23.7754 108.032 33.0221 107.655 42.1217 107.664C50.9705 107.672 59.8211 107.681 68.6717 107.69C81.3631 107.704 94.1479 108.06 106.872 107.711C106.867 107.596 106.836 107.489 106.836 107.377Z" fill="#FE8D00"/>
<path d="M160.475 106.33C185.377 107.958 210.513 107.491 235.456 107.844C236.712 107.863 236.712 105.996 235.456 105.97C210.518 105.491 185.414 104.185 160.475 104.983C159.555 105.011 159.566 106.271 160.475 106.33Z" fill="#FE8D00"/>
<path d="M227.533 202.438C227.14 211.927 227.055 221.449 226.971 230.946C226.893 239.744 225.833 249.282 227.244 257.972C227.356 258.671 228.615 258.671 228.728 257.972C230.137 249.292 229.079 239.737 229.001 230.946C228.916 221.449 228.83 211.927 228.437 202.438C228.416 201.893 227.557 201.893 227.533 202.438Z" fill="#FE8D00"/>
<path d="M168.788 258.755C178.073 259.324 187.364 259.512 196.666 259.635C205.244 259.746 214.594 260.869 223.068 259.455C223.832 259.329 223.816 258.143 223.068 258.002C214.632 256.396 205.24 257.315 196.666 257.234C187.368 257.146 178.08 257.125 168.788 257.488C167.922 257.523 167.929 258.703 168.788 258.755Z" fill="#FE8D00"/>
<path d="M21.6452 190.349C20.5384 199.536 21.1782 209.121 21.3028 218.356C21.3615 222.883 21.4653 227.408 21.5517 231.937C21.633 236.187 21.2179 240.752 22.176 244.902C22.3679 245.73 23.7964 245.766 23.9607 244.902C24.7648 240.705 24.1889 236.196 24.1094 231.937C24.0212 227.127 23.9485 222.316 23.8275 217.508C23.6009 208.497 23.8569 199.166 22.4424 190.25C22.368 189.797 21.6918 189.962 21.6452 190.349Z" fill="#FE8D00"/>
<path d="M79.2378 59.1918C79.5214 59.1918 79.5214 58.7856 79.2378 58.7856C78.9542 58.7856 78.9542 59.1918 79.2378 59.1918Z" fill="#FE8D00"/>
<path d="M249.052 52.2708C248.435 59.6651 248.781 67.2391 248.68 74.661C248.587 81.5212 247.9 88.7011 249.101 95.4835C249.201 96.0418 250.2 96.0418 250.299 95.4835C251.501 88.6942 250.813 81.5281 250.721 74.661C250.621 67.2408 250.966 59.6616 250.347 52.2708C250.283 51.4826 249.12 51.4826 249.052 52.2708Z" fill="#FE8D00"/>
<path d="M126.667 11.7926C121.875 0.0754776 104.646 1.75899 102.039 14.1778C100.659 20.7511 103.78 27.2016 107.885 32.1381C110.696 35.5189 114.019 38.395 117.115 41.501C120.316 44.7107 122.711 48.197 125.076 52.0393C125.654 52.9761 127.297 52.4005 126.967 51.2753C123.965 41.0966 112.745 35.6866 107.348 26.9977C104.001 21.6119 102.594 13.6662 107.856 8.91127C113.514 3.80028 121.452 6.35145 125.026 12.4494C125.495 13.2548 127.055 12.7363 126.667 11.7926Z" fill="#FE8D00"/>
<path d="M124.416 16.4474C127.708 10.8801 132.732 5.69649 139.701 5.75698C146.402 5.81402 152.494 11.0512 152.026 18.015C151.542 25.2019 145.653 30.4685 140.88 35.1923C135.658 40.3621 130.454 45.5473 125.267 50.7499C124.132 51.8873 125.92 53.5725 127.032 52.468C134.363 45.193 142.437 38.1635 148.965 30.147C153.231 24.9081 156.361 17.3928 152.752 10.9475C145.444 -2.09879 127.573 4.12706 122.847 15.8217C122.486 16.7153 123.961 17.2165 124.416 16.4474Z" fill="#FE8D00"/>
<path d="M125.934 50.3609C109.712 31.4811 88.111 15.0143 65.1199 5.17771C55.1055 0.892906 41.5408 -3.26395 31.7927 3.81228C22.304 10.6967 21.7316 24.3876 27.4245 33.818C35.0576 46.458 50.822 51.7695 64.8191 52.9172C66.1108 53.0226 66.4256 50.9434 65.1303 50.6962C52.5375 48.2902 39.2909 45.6733 31.1373 34.7098C23.843 24.9027 24.3809 8.00025 37.7052 3.52359C48.3249 -0.0439084 60.8623 5.51648 70.294 10.2593C79.7896 15.0333 88.808 20.7769 97.4148 26.9992C107.178 34.0582 117.229 41.9503 125.241 51.0073C125.63 51.4532 126.343 50.8345 125.934 50.3609Z" fill="#FE8D00"/>
<path d="M99.8305 37.0034C92.161 30.5408 83.281 25.3382 74.1433 21.2487C67.7483 18.3864 57.8222 15.1629 53.1824 22.7266C48.8142 29.846 54.8788 37.6291 60.1342 42.1559C66.5759 47.7077 75.2483 51.9492 83.8534 52.269C85.0051 52.3122 85.2974 50.5388 84.1301 50.2951C77.3668 48.8813 71.1914 47.2029 65.3827 43.2465C59.7659 39.4198 48.4337 28.7467 57.0456 22.1285C63.5738 17.1108 74.3751 23.5355 80.4692 26.6518C86.9696 29.9756 92.9167 33.9769 98.8569 38.1978C99.5607 38.6973 100.531 37.5911 99.8305 37.0034Z" fill="#FE8D00"/>
<path d="M105.727 40.6556C108.207 42.8368 111.076 44.5895 113.855 46.3577C116.57 48.0827 119.441 50.3919 122.566 51.2302C123.149 51.3857 123.557 50.7202 123.159 50.2795C121.113 48.0239 117.995 46.6446 115.387 45.1097C112.385 43.3433 109.356 41.4835 106.113 40.1958C105.833 40.0886 105.428 40.3946 105.727 40.6556Z" fill="#FE8D00"/>
<path d="M126.754 51.0072C133.512 43.3675 141.856 36.599 149.951 30.4302C158.843 23.653 168.221 17.4651 178.066 12.1554C187.193 7.23279 198.045 1.97315 208.673 2.53835C223.241 3.31269 229.387 18.6491 223.274 30.826C216.304 44.714 200.717 48.0482 186.861 50.6961C185.582 50.9416 185.865 53.0243 187.173 52.9171C199.885 51.8749 213.785 47.5019 222.096 37.2886C229.07 28.719 230.884 16.0547 223.587 7.0409C215.319 -3.17417 200.604 -0.183959 189.952 3.92108C178.682 8.26465 168.223 14.7325 158.359 21.6289C146.402 29.9877 135.554 39.3057 126.055 50.3625C125.649 50.8344 126.36 51.4532 126.754 51.0072Z" fill="#FE8D00"/>
<path d="M153.135 38.1961C158.865 34.1239 164.6 30.2366 170.853 26.9924C177.092 23.755 188.276 17.002 194.946 22.1268C203.203 28.4736 192.959 38.6265 187.593 42.5311C181.547 46.9282 175.055 48.7897 167.861 50.2935C166.708 50.5337 166.973 52.3123 168.138 52.2673C176.508 51.9562 184.987 47.9082 191.338 42.6019C196.774 38.0613 203.316 30.0707 198.807 22.7266C194.341 15.4481 184.795 18.186 178.531 20.9463C169.143 25.0859 160.019 30.3801 152.159 37.0035C151.469 37.5859 152.422 38.7025 153.135 38.1961Z" fill="#FE8D00"/>
<path d="M145.878 40.1991C142.636 41.4868 139.606 43.3466 136.604 45.1131C133.996 46.6462 130.878 48.0272 128.833 50.2828C128.437 50.7218 128.841 51.389 129.426 51.2334C132.547 50.3951 135.43 48.0808 138.136 46.361C140.917 44.5911 143.786 42.8402 146.264 40.6589C146.56 40.3944 146.162 40.0867 145.878 40.1991Z" fill="#FE8D00"/>
</svg>
