<svg width="70" height="70" viewBox="0 0 70 70" fill="none" xmlns="http://www.w3.org/2000/svg">
  <g clip-path="url(#clip0_231_20946)">
    <path d="M41.75 41.75C36.25 47.425 35.85 54.5 35.375 70C49.825 70 59.8 69.95 64.95 64.95C69.95 59.8 70 49.35 70 35.375C54.5 35.875 47.425 36.25 41.75 41.75ZM0 35.375C0 49.35 0.05 59.8 5.05 64.95C10.2 69.95 20.175 70 34.625 70C34.125 54.5 33.75 47.425 28.25 41.75C22.575 36.25 15.5 35.85 0 35.375ZM34.625 0C20.2 0 10.2 0.05 5.05 5.05C0.05 10.2 0 20.65 0 34.625C15.5 34.125 22.575 33.75 28.25 28.25C33.75 22.575 34.15 15.5 34.625 0ZM41.75 28.25C36.25 22.575 35.85 15.5 35.375 0C49.825 0 59.8 0.05 64.95 5.05C69.95 10.2 70 20.65 70 34.625C54.5 34.125 47.425 33.75 41.75 28.25Z" fill="#2C3036" />
    <path d="M70 35.375V34.625C54.5 34.125 47.425 33.75 41.75 28.25C36.25 22.575 35.85 15.5 35.375 0H34.625C34.125 15.5 33.75 22.575 28.25 28.25C22.575 33.75 15.5 34.15 0 34.625V35.375C15.5 35.875 22.575 36.25 28.25 41.75C33.75 47.425 34.15 54.5 34.625 70H35.375C35.875 54.5 36.25 47.425 41.75 41.75C47.425 36.25 54.5 35.85 70 35.375Z" fill="white" />
  </g>
  <defs>
    <clipPath id="clip0_231_20946">
      <rect width="70" height="70" fill="white" />
    </clipPath>
  </defs>
</svg>