<svg width="32" height="32" viewBox="0 0 32 32" fill="none" xmlns="http://www.w3.org/2000/svg">
    <path
        d="M15 18C16.0609 18 17.0783 18.4214 17.8284 19.1716C18.5786 19.9217 19 20.9391 19 22C19 23.93 17.816 25.46 16.178 26.46C14.54 27.456 12.35 28 10 28C7.65 28 5.46 27.456 3.822 26.46C2.182 25.46 1 23.93 1 22C1 20.9391 1.42143 19.9217 2.17157 19.1716C2.92172 18.4214 3.93913 18 5 18H15ZM28.306 18.016C29.0447 18.0917 29.7291 18.4388 30.2268 18.99C30.7244 19.5412 30.9999 20.2574 31 21C31 22.542 30.06 23.818 28.796 24.66C27.526 25.508 25.826 26 24 26C22.6 26 21.28 25.708 20.166 25.194C20.682 24.268 20.998 23.202 20.998 22C20.998 20.482 20.43 19.1 19.5 18.042C19.6627 18.0153 19.8293 18.0013 20 18H28L28.306 18.016ZM10 5C11.4587 5 12.8576 5.57946 13.8891 6.61091C14.9205 7.64236 15.5 9.04131 15.5 10.5C15.5 11.9587 14.9205 13.3576 13.8891 14.3891C12.8576 15.4205 11.4587 16 10 16C8.54131 16 7.14236 15.4205 6.11091 14.3891C5.07946 13.3576 4.5 11.9587 4.5 10.5C4.5 9.04131 5.07946 7.64236 6.11091 6.61091C7.14236 5.57946 8.54131 5 10 5ZM24.004 6.994C24.6033 6.98137 25.1991 7.0885 25.7565 7.30913C26.3139 7.52975 26.8217 7.85942 27.25 8.27881C27.6783 8.6982 28.0186 9.19888 28.2509 9.7515C28.4832 10.3041 28.6029 10.8975 28.6029 11.497C28.6029 12.0965 28.4832 12.6899 28.2509 13.2425C28.0186 13.7951 27.6783 14.2958 27.25 14.7152C26.8217 15.1346 26.3139 15.4643 25.7565 15.6849C25.1991 15.9055 24.6033 16.0126 24.004 16C22.8262 15.9752 21.7049 15.4898 20.8807 14.6481C20.0565 13.8063 19.5949 12.6751 19.5949 11.497C19.5949 10.3189 20.0565 9.1877 20.8807 8.34592C21.7049 7.50415 22.8262 7.01882 24.004 6.994Z"
        fill="currentColor" />
</svg>