<svg width="32" height="32" viewBox="0 0 32 32" fill="none" xmlns="http://www.w3.org/2000/svg">
    <path fill-rule="evenodd" clip-rule="evenodd"
        d="M13.8665 5.71356L13.0634 5.17713C11.9172 4.41107 10.5477 3.99978 9.1436 4H8.16446C7.51649 4 6.86373 4.03778 6.25417 4.24177C2.44159 5.52014 -0.180659 10.1878 0.00972949 20.7775C0.0481273 22.9111 0.576096 25.2684 2.61438 26.1886C3.30969 26.5043 4.07155 26.6676 4.84305 26.6661C5.7102 26.6795 6.56208 26.4497 7.29091 26.0058C7.94687 25.6008 8.52283 25.0749 9.0988 24.5491C9.80916 23.8993 10.5195 23.2496 11.3771 22.8295C12.3112 22.3715 13.3484 22.1326 14.4009 22.1329H17.5991C18.6518 22.1329 19.6886 22.3716 20.6229 22.828C21.4805 23.2496 22.1908 23.8993 22.9028 24.5491C23.4788 25.0749 24.0547 25.6008 24.7075 26.0058C25.3315 26.3926 26.1394 26.6661 27.157 26.6661C27.9284 26.6676 28.6903 26.5043 29.3856 26.1886C31.4239 25.2684 31.9519 22.9096 31.9903 20.7775C32.1807 10.1878 29.5584 5.52014 25.7458 4.24328C25.1347 4.03778 24.4787 4 23.8339 4H22.8548C21.4505 4.00022 20.081 4.41204 18.935 5.17864L18.1319 5.71356C17.5081 6.12985 16.763 6.35337 15.9992 6.35337C15.2354 6.35337 14.4903 6.12985 13.8665 5.71356ZM23.5988 10.0443C23.917 10.0443 24.2222 10.1637 24.4472 10.3762C24.6723 10.5888 24.7987 10.877 24.7987 11.1776C24.7987 11.4782 24.6723 11.7664 24.4472 11.979C24.2222 12.1915 23.917 12.3109 23.5988 12.3109C23.2805 12.3109 22.9753 12.1915 22.7503 11.979C22.5252 11.7664 22.3988 11.4782 22.3988 11.1776C22.3988 10.877 22.5252 10.5888 22.7503 10.3762C22.9753 10.1637 23.2805 10.0443 23.5988 10.0443ZM8.79962 10.4221C9.11786 10.4221 9.42307 10.5415 9.6481 10.754C9.87313 10.9665 9.99955 11.2548 9.99955 11.5554V12.6887H11.1995C11.5177 12.6887 11.8229 12.8081 12.048 13.0206C12.273 13.2331 12.3994 13.5214 12.3994 13.822C12.3994 14.1226 12.273 14.4108 12.048 14.6233C11.8229 14.8359 11.5177 14.9553 11.1995 14.9553H9.99955V16.0886C9.99955 16.3892 9.87313 16.6774 9.6481 16.89C9.42307 17.1025 9.11786 17.2219 8.79962 17.2219C8.48138 17.2219 8.17617 17.1025 7.95114 16.89C7.72611 16.6774 7.59969 16.3892 7.59969 16.0886V14.9553H6.39976C6.08152 14.9553 5.77631 14.8359 5.55128 14.6233C5.32625 14.4108 5.19983 14.1226 5.19983 13.822C5.19983 13.5214 5.32625 13.2331 5.55128 13.0206C5.77631 12.8081 6.08152 12.6887 6.39976 12.6887H7.59969V11.5554C7.59969 11.2548 7.72611 10.9665 7.95114 10.754C8.17617 10.5415 8.48138 10.4221 8.79962 10.4221ZM27.1985 13.4442C27.1985 13.7448 27.0721 14.033 26.8471 14.2456C26.6221 14.4581 26.3169 14.5775 25.9986 14.5775C25.6804 14.5775 25.3752 14.4581 25.1501 14.2456C24.9251 14.033 24.7987 13.7448 24.7987 13.4442C24.7987 13.1436 24.9251 12.8554 25.1501 12.6428C25.3752 12.4303 25.6804 12.3109 25.9986 12.3109C26.3169 12.3109 26.6221 12.4303 26.8471 12.6428C27.0721 12.8554 27.1985 13.1436 27.1985 13.4442ZM21.1989 14.5775C21.5171 14.5775 21.8223 14.4581 22.0474 14.2456C22.2724 14.033 22.3988 13.7448 22.3988 13.4442C22.3988 13.1436 22.2724 12.8554 22.0474 12.6428C21.8223 12.4303 21.5171 12.3109 21.1989 12.3109C20.8807 12.3109 20.5754 12.4303 20.3504 12.6428C20.1254 12.8554 19.999 13.1436 19.999 13.4442C19.999 13.7448 20.1254 14.033 20.3504 14.2456C20.5754 14.4581 20.8807 14.5775 21.1989 14.5775ZM24.7987 15.7108C24.7987 15.4103 24.6723 15.122 24.4472 14.9095C24.2222 14.6969 23.917 14.5775 23.5988 14.5775C23.2805 14.5775 22.9753 14.6969 22.7503 14.9095C22.5252 15.122 22.3988 15.4103 22.3988 15.7108C22.3988 16.0114 22.5252 16.2997 22.7503 16.5122C22.9753 16.7247 23.2805 16.8441 23.5988 16.8441C23.917 16.8441 24.2222 16.7247 24.4472 16.5122C24.6723 16.2997 24.7987 16.0114 24.7987 15.7108Z"
        fill="currentColor" />
</svg>