<svg width="32" height="32" viewBox="0 0 32 32" fill="none" xmlns="http://www.w3.org/2000/svg">
    <path
        d="M7 23.8286V14.0571C7 13.7133 7.07987 13.3876 7.23962 13.08C7.39937 12.7724 7.6195 12.519 7.9 12.32L14.65 7.43429C15.0437 7.14476 15.4937 7 16 7C16.5062 7 16.9562 7.14476 17.35 7.43429L24.1 12.32C24.3812 12.519 24.6017 12.7724 24.7615 13.08C24.9212 13.3876 25.0007 13.7133 25 14.0571V23.8286C25 24.4257 24.7795 24.9371 24.3385 25.3627C23.8975 25.7883 23.368 26.0007 22.75 26H19.375C19.0562 26 18.7892 25.8958 18.574 25.6873C18.3587 25.4789 18.2507 25.2212 18.25 24.9143V19.4857C18.25 19.1781 18.142 18.9204 17.926 18.7127C17.71 18.505 17.443 18.4007 17.125 18.4H14.875C14.5562 18.4 14.2892 18.5042 14.074 18.7127C13.8587 18.9211 13.7507 19.1788 13.75 19.4857V24.9143C13.75 25.2219 13.642 25.4799 13.426 25.6884C13.21 25.8969 12.943 26.0007 12.625 26H9.25C8.63125 26 8.10175 25.7876 7.6615 25.3627C7.22125 24.9378 7.00075 24.4264 7 23.8286Z"
        fill="currentColor" />
</svg>