<svg width="32" height="32" viewBox="0 0 32 32" fill="none" xmlns="http://www.w3.org/2000/svg">
    <path
        d="M16 2C19.713 2 23.274 3.475 25.8995 6.1005C28.525 8.72601 30 12.287 30 16C30 19.713 28.525 23.274 25.8995 25.8995C23.274 28.525 19.713 30 16 30C12.287 30 8.72601 28.525 6.1005 25.8995C3.475 23.274 2 19.713 2 16C2 12.287 3.475 8.72601 6.1005 6.1005C8.72601 3.475 12.287 2 16 2ZM18.1 10.5938C19.1406 10.5938 19.9844 9.875 19.9844 8.80313C19.9844 7.73125 19.1406 7.0125 18.1 7.0125C17.0594 7.0125 16.2188 7.73125 16.2188 8.80313C16.2188 9.875 17.0625 10.5969 18.1 10.5969M18.4656 21.85C18.4656 21.6375 18.5406 21.0813 18.4969 20.7625L16.8531 22.6562C16.5125 23.0125 16.0875 23.2625 15.8875 23.1969C15.7972 23.1631 15.7219 23.0984 15.675 23.0143C15.6281 22.9301 15.6125 22.832 15.6313 22.7375L18.3687 14.0813C18.5938 12.9812 17.9781 11.9812 16.6719 11.8531C15.2969 11.8531 13.2656 13.25 12.0312 15.025C12.0312 15.2375 11.9906 15.7625 12.0312 16.0812L13.675 14.1875C14.0188 13.8313 14.4125 13.5812 14.6125 13.65C14.7098 13.6867 14.7893 13.7594 14.8347 13.853C14.88 13.9466 14.8877 14.054 14.8562 14.1531L12.1375 22.7687C11.825 23.775 12.4187 24.7625 13.8594 24.9875C15.9812 24.9875 17.2344 23.625 18.4688 21.85H18.4656Z"
        fill="currentColor" />
</svg>