<svg width="32" height="32" viewBox="0 0 32 32" fill="none" xmlns="http://www.w3.org/2000/svg">
    <path fill-rule="evenodd" clip-rule="evenodd"
        d="M29.3334 10.6663V26.6663H25.3309L25.3334 30.6663L18.6667 26.6663H13.3334V10.6663H29.3334ZM18.6667 5.33301V9.33301H12.0001V22.133L6.66675 25.333L6.66925 21.333H2.66675V5.33301H18.6667ZM22.1167 14.6663H20.5584L17.6001 22.6663H19.0059L19.8245 20.3742H22.828L23.6523 22.6663H25.1427L22.1167 14.6663ZM21.3262 16.0044C21.4471 16.4096 21.5762 16.8123 21.7134 17.2122L21.7722 17.3819L22.4441 19.2789H20.2027L20.8746 17.3819C21.0628 16.8588 21.2133 16.3996 21.3262 16.0044ZM9.98119 7.4917H8.64787V8.15832H5.31444V9.49169L10.2914 9.49176C10.2114 10.6273 9.92337 11.6501 9.42756 12.5664C8.88925 11.8259 8.51837 10.9984 8.31275 10.0785L8.29962 10.0184L6.996 10.2984L7.09381 10.7054C7.39069 11.8197 7.90281 12.8238 8.62787 13.7119C7.8415 14.5604 6.71462 15.1556 5.2265 15.4948L5.16981 15.5076L5.45906 16.8091L5.85706 16.7134C7.41025 16.3099 8.64981 15.6286 9.55987 14.6675C10.1976 15.2176 10.988 15.7376 11.9307 16.2302L12 16.2661V14.7478C11.3549 14.3763 10.8109 13.9942 10.368 13.6032C11.1032 12.4084 11.5214 11.0576 11.6232 9.55995L11.6276 9.49182L11.9999 9.49169V8.15832H9.98106L9.98119 7.4917Z"
        fill="#FE8D00" />
</svg>