<svg width="54" height="54" viewBox="0 0 54 54" fill="none" xmlns="http://www.w3.org/2000/svg">
    <path
        d="M13.5 49.5C12.2625 49.5 11.2035 49.0597 10.323 48.1792C9.4425 47.2988 9.0015 46.239 9 45V22.5C9 21.2625 9.441 20.2035 10.323 19.323C11.205 18.4425 12.264 18.0015 13.5 18H15.75V13.5C15.75 10.3875 16.8473 7.73475 19.0418 5.54175C21.2363 3.34875 23.889 2.2515 27 2.25C30.111 2.2485 32.7645 3.34575 34.9605 5.54175C37.1565 7.73775 38.253 10.3905 38.25 13.5V18H40.5C41.7375 18 42.7972 18.441 43.6792 19.323C44.5612 20.205 45.0015 21.264 45 22.5V45C45 46.2375 44.5597 47.2972 43.6792 48.1792C42.7988 49.0612 41.739 49.5015 40.5 49.5H13.5ZM30.1793 36.9293C31.0597 36.0473 31.5 34.9875 31.5 33.75C31.5 32.5125 31.0597 31.4535 30.1793 30.573C29.2987 29.6925 28.239 29.2515 27 29.25C25.761 29.2485 24.702 29.6895 23.823 30.573C22.944 31.4565 22.503 32.5155 22.5 33.75C22.497 34.9845 22.938 36.0443 23.823 36.9293C24.708 37.8143 25.767 38.2545 27 38.25C28.233 38.2455 29.2927 37.8053 30.1793 36.9293ZM20.25 18H33.75V13.5C33.75 11.625 33.0938 10.0313 31.7812 8.71875C30.4688 7.40625 28.875 6.75 27 6.75C25.125 6.75 23.5312 7.40625 22.2188 8.71875C20.9062 10.0313 20.25 11.625 20.25 13.5V18Z"
        fill="white" />
</svg>