<svg width="80" height="80" viewBox="0 0 80 80" fill="none" xmlns="http://www.w3.org/2000/svg">
    <path
        d="M40 6.66699C21.6 6.66699 6.66663 21.6003 6.66663 40.0003C6.66663 58.4003 21.6 73.3337 40 73.3337C58.4 73.3337 73.3333 58.4003 73.3333 40.0003C73.3333 21.6003 58.4 6.66699 40 6.66699ZM13.3333 40.0003C13.3333 25.267 25.2666 13.3337 40 13.3337C46.1666 13.3337 51.8333 15.4337 56.3333 18.967L18.9666 56.3337C15.3054 51.6777 13.3207 45.9234 13.3333 40.0003ZM40 66.667C33.8333 66.667 28.1666 64.567 23.6666 61.0337L61.0333 23.667C64.6945 28.323 66.6792 34.0773 66.6666 40.0003C66.6666 54.7337 54.7333 66.667 40 66.667Z"
        fill="#FE8D00" />
</svg>