<svg width="32" height="32" viewBox="0 0 32 32" fill="none" xmlns="http://www.w3.org/2000/svg">
    <rect width="32" height="32" rx="8" fill="white" fill-opacity="0.04" />
    <path fill-rule="evenodd" clip-rule="evenodd"
        d="M16.1035 7C18.2633 7 19.8475 7.43955 20.8555 8.31934C21.8794 9.19931 22.3916 10.4317 22.3916 12.0156C22.3916 13.0076 22.1677 13.9041 21.7197 14.7041C21.2718 15.5039 20.5597 16.1357 19.584 16.5996C18.624 17.0636 17.3599 17.2959 15.792 17.2959H14.0635V19.2637H17.8555V21.3037H14.0635V24.1357H10.9922V21.3037H9V19.2637H10.9922V17.2959H9V14.752H10.9922V7H16.1035ZM14.0635 14.752H15.4561C16.2399 14.7519 16.9118 14.6633 17.4717 14.4873C18.0477 14.3113 18.488 14.0314 18.792 13.6475C19.1118 13.2635 19.2715 12.7512 19.2715 12.1113C19.2714 11.2476 19 10.6073 18.4561 10.1914C17.9121 9.75945 17.0639 9.54399 15.9121 9.54395H14.0635V14.752Z"
        fill="#FE8D00" />
</svg>