<svg width="130" height="22" viewBox="0 0 130 22" fill="none" xmlns="http://www.w3.org/2000/svg">
  <g clip-path="url(#clip0_231_20955)">
    <path d="M13.0016 13.3022H3.87186V9.57547H13.0016C13.5349 9.57547 13.9057 9.67135 14.0917 9.8388C14.2778 10.0062 14.3931 10.3168 14.3931 10.7705V12.1086C14.3931 12.5866 14.2778 12.8972 14.0917 13.0646C13.9057 13.2321 13.5349 13.3036 13.0016 13.3036V13.3022ZM13.6279 6.06198H0V21.9993H3.87186V16.8142H11.0073L14.3931 21.9993H18.7288L14.9958 16.7899C16.3721 16.5795 16.9901 16.1445 17.4998 15.4275C18.0094 14.7105 18.265 13.5641 18.265 12.0342V10.8392C18.265 9.93183 18.1719 9.21481 18.0094 8.66526C17.847 8.11568 17.5692 7.63768 17.1748 7.20834C16.7582 6.80188 16.2943 6.51566 15.7374 6.32387C15.1805 6.15643 14.4848 6.06055 13.6279 6.06055V6.06198Z" fill="white" />
    <path d="M24.148 17.2918V6.06055H20.2712V17.1959C20.2712 18.1034 20.3407 18.8448 20.5034 19.3944C20.6661 19.9683 20.9442 20.4464 21.3627 20.8514C21.7577 21.2808 22.2221 21.5685 22.7782 21.736C23.3359 21.9263 24.031 21.9993 24.9142 21.9993H33.9163C34.7757 21.9993 35.4724 21.9278 36.0285 21.736C36.5862 21.5685 37.0507 21.2823 37.4678 20.8514C37.8626 20.445 38.1407 19.9669 38.3035 19.3944C38.4661 18.8448 38.5593 18.1034 38.5593 17.1959V6.06055H34.6825V17.2918C34.6825 17.7699 34.5672 18.0805 34.3808 18.2479C34.1944 18.4154 33.8231 18.487 33.2892 18.487H25.5412C24.9836 18.487 24.6123 18.4154 24.4274 18.2479C24.241 18.0805 24.1494 17.7699 24.1494 17.2918H24.148Z" fill="white" />
    <path d="M52.6079 21.9993V9.57291H59.9322V6.06055H41.4237V9.57291H48.748V21.9993H52.6079Z" fill="white" />
    <path d="M66.6735 17.2918V6.06055H62.7966V17.1959C62.7966 18.1034 62.8662 18.8448 63.0288 19.3944C63.1914 19.9683 63.4695 20.4464 63.8882 20.8514C64.283 21.2808 64.7475 21.5685 65.3036 21.736C65.8613 21.9263 66.5565 21.9993 67.4396 21.9993H76.4418C77.3011 21.9993 77.9978 21.9278 78.5539 21.736C79.1116 21.5685 79.5761 21.2823 79.9932 20.8514C80.388 20.445 80.6661 19.9669 80.8289 19.3944C80.9915 18.8448 81.0847 18.1034 81.0847 17.1959V6.06055H77.2079V17.2918C77.2079 17.7699 77.0926 18.0805 76.9062 18.2479C76.7214 18.4154 76.3485 18.487 75.8147 18.487H68.0667C67.509 18.487 67.1377 18.4154 66.9529 18.2479C66.7664 18.0805 66.6748 17.7699 66.6748 17.2918H66.6735Z" fill="white" />
    <path d="M87.8309 18.487V15.6201H97.0078C97.5423 15.6201 97.9142 15.716 98.1007 15.8834C98.2873 16.0509 98.4027 16.3615 98.4027 16.8152V17.2933C98.4027 17.7713 98.2873 18.0819 98.1007 18.2494C97.9156 18.4168 97.5423 18.4884 97.0078 18.4884H87.8309V18.487ZM87.8309 12.4412V9.57435H96.0749C96.6332 9.57435 97.0049 9.67025 97.1902 9.8377C97.3766 10.0052 97.4685 10.3158 97.4685 10.7695V11.2475C97.4685 11.7256 97.3753 12.0362 97.1902 12.2036C97.0049 12.3711 96.6319 12.4426 96.0749 12.4426H87.8309V12.4412ZM101.328 10.6965V10.3859C101.328 8.90452 100.956 7.80528 100.213 7.11255C99.4694 6.4198 98.2831 6.06055 96.7028 6.06055H83.9492V21.9993H97.6119C99.1922 21.9993 100.379 21.6644 101.122 20.9717C101.866 20.2789 102.237 19.1797 102.237 17.6983V17.3634C102.237 15.882 101.866 14.83 101.122 14.2089C100.983 14.113 100.844 14.0414 100.703 13.9698C100.564 13.8982 100.211 13.8024 99.9566 13.7065C100.468 13.4202 100.817 13.038 101.026 12.6072C101.212 12.1764 101.328 11.5324 101.328 10.695V10.6965Z" fill="white" />
    <path d="M108.094 9.57291H122.068V6.06055H104.22V21.9993H122.068V18.487H108.094V15.7861H120.288V12.2738H108.094V9.57291Z" fill="white" />
    <path d="M127.025 6.06122C128.668 6.06122 130 4.70436 130 3.03061C130 1.35685 128.668 0 127.025 0C125.383 0 124.051 1.35685 124.051 3.03061C124.051 4.70436 125.383 6.06122 127.025 6.06122Z" fill="#ED143B" />
  </g>
  <defs>
    <clipPath id="clip0_231_20955">
      <rect width="130" height="22" fill="white" />
    </clipPath>
  </defs>
</svg>