<svg width="40" height="40" viewBox="0 0 40 40" fill="none" xmlns="http://www.w3.org/2000/svg">
    <path
        d="M24.4417 3.88342C24.7381 3.73523 25.0812 3.7108 25.3956 3.81549C25.71 3.92019 25.97 4.14545 26.1184 4.44175L29.7867 11.7784C32.0417 11.9517 33.4567 12.3951 34.37 13.5234C35.0967 14.4218 35.33 15.5384 35.245 17.0834H4.75502C4.67002 15.5384 4.90502 14.4218 5.63002 13.5234C6.54335 12.3934 7.95835 11.9517 10.2134 11.7784L13.8817 4.44175C14.0313 4.1478 14.291 3.9249 14.6043 3.82163C14.9176 3.71835 15.2589 3.74308 15.554 3.89041C15.8491 4.03774 16.074 4.29574 16.1797 4.60818C16.2855 4.92062 16.2634 5.26218 16.1184 5.55842L13.06 11.6751C13.8634 11.6695 14.7445 11.6667 15.7034 11.6667H24.2967C25.2556 11.6656 26.1367 11.6684 26.94 11.6751L23.8817 5.55842C23.7336 5.26181 23.7094 4.91854 23.8145 4.60411C23.9195 4.28967 24.1451 4.0315 24.4417 3.88342Z"
        fill="currentColor" />
    <path fill-rule="evenodd" clip-rule="evenodd"
        d="M5.92501 23.7616C5.61762 22.3738 5.33425 20.9808 5.07501 19.5833H34.925C34.6658 20.9808 34.3824 22.3738 34.075 23.7616L33.36 27.0949C32.5483 30.8833 32.1433 32.7766 30.7683 33.8883C29.3933 34.9999 27.4567 34.9999 23.5833 34.9999H16.4167C12.5433 34.9999 10.6067 34.9999 9.23335 33.8883C7.85668 32.7766 7.45001 30.8833 6.64001 27.0949L5.92501 23.7616ZM16.6667 22.0833C16.3352 22.0833 16.0172 22.2149 15.7828 22.4494C15.5484 22.6838 15.4167 23.0017 15.4167 23.3333C15.4167 23.6648 15.5484 23.9827 15.7828 24.2171C16.0172 24.4516 16.3352 24.5833 16.6667 24.5833H23.3333C23.6649 24.5833 23.9828 24.4516 24.2172 24.2171C24.4516 23.9827 24.5833 23.6648 24.5833 23.3333C24.5833 23.0017 24.4516 22.6838 24.2172 22.4494C23.9828 22.2149 23.6649 22.0833 23.3333 22.0833H16.6667Z"
        fill="currentColor" />
</svg>