<svg width="70" height="70" viewBox="0 0 70 70" fill="none" xmlns="http://www.w3.org/2000/svg">
    <path
        d="M0 33.6C0 17.7608 0 9.84121 4.92061 4.92061C9.84121 0 17.7608 0 33.6 0H36.4C52.2392 0 60.1588 0 65.0794 4.92061C70 9.84121 70 17.7608 70 33.6V36.4C70 52.2392 70 60.1588 65.0794 65.0794C60.1588 70 52.2392 70 36.4 70H33.6C17.7608 70 9.84121 70 4.92061 65.0794C0 60.1588 0 52.2392 0 36.4V33.6Z"
        fill="#0077FF" />
    <path
        d="M37.2457 50.4304C21.2916 50.4304 12.1917 39.493 11.8125 21.293H19.8041C20.0666 34.6513 25.9582 40.3096 30.6249 41.4763V21.293H38.1501V32.8137C42.7584 32.3179 47.5995 27.068 49.2328 21.293H56.7581C55.5039 28.4096 50.2539 33.6596 46.5205 35.8179C50.2539 37.5679 56.2334 42.1471 58.5084 50.4304H50.2248C48.4456 44.8888 44.0126 40.6013 38.1501 40.0179V50.4304H37.2457Z"
        fill="white" />
</svg>