<svg width="41" height="33" viewBox="0 0 41 33" fill="none" xmlns="http://www.w3.org/2000/svg">
    <path
        d="M7.81154 9.72147C8.15115 9.54296 8.35868 9.18588 8.34569 8.80244L8.08254 1.03512C8.05596 0.250644 8.9022 -0.25723 9.58197 0.135234L13.5028 2.39895C13.8209 2.58255 14.0127 2.92569 14.0025 3.29275L13.9131 6.5069C13.8912 7.29693 14.7512 7.799 15.4283 7.39151L18.2146 5.71486C18.5263 5.52732 18.9152 5.5238 19.2302 5.70567L23.1487 7.96801C23.833 8.36308 23.8104 9.35832 23.1089 9.72189L16.1745 13.3156C15.8286 13.4949 15.6182 13.8588 15.6356 14.248L16.0025 22.4719C16.0377 23.2609 15.1874 23.7774 14.5035 23.3825L10.5961 21.1266C10.2815 20.9449 10.0901 20.607 10.0962 20.2438L10.1589 16.5015C10.1721 15.7159 9.31561 15.2227 8.6427 15.6284L5.44521 17.5563C5.13344 17.7443 4.74415 17.7479 4.42887 17.5659L0.500031 15.2976C-0.181986 14.9038 -0.162335 13.9128 0.534755 13.5464L7.81154 9.72147Z"
        fill="white" />
    <path
        d="M31.8747 32.2571C31.5986 32.7354 30.987 32.8992 30.5087 32.6231L17.9089 25.3486C17.4306 25.0725 17.2668 24.4609 17.5429 23.9826L18.8651 21.6925C18.9967 21.4645 19.213 21.2976 19.4669 21.228L26.7082 19.2444C28.3109 18.7769 29.5689 18.3866 30.4821 18.0734C31.4044 17.7653 32.1055 17.4557 32.5854 17.1444C33.0653 16.8331 33.443 16.4389 33.7185 15.9616C34.0565 15.3762 34.1117 14.8438 33.8843 14.3643C33.6568 13.8848 33.2865 13.4968 32.7732 13.2005C32.1518 12.8418 31.4175 12.6579 30.5701 12.649C29.9768 12.6399 29.29 12.6926 28.5097 12.8069C27.9609 12.8874 27.4354 12.5319 27.3342 11.9865L26.7457 8.81397C26.6466 8.27955 26.9922 7.76179 27.5282 7.67137C28.1209 7.57138 28.7222 7.49143 29.332 7.43152C30.2791 7.32998 31.2958 7.38867 32.3821 7.60761C33.4684 7.82655 34.6645 8.31296 35.9702 9.06684C37.312 9.84151 38.3385 10.7463 39.0497 11.7813C39.7699 12.8215 40.1636 13.9073 40.2308 15.0387C40.3032 16.1612 40.0404 17.2402 39.4425 18.2758C38.7822 19.4194 37.9805 20.3193 37.0373 20.9755C36.1084 21.6279 34.9652 22.1625 33.6078 22.5795C32.2556 22.9875 30.6261 23.3975 28.7193 23.8095L26.5724 24.2618C26.5424 24.2682 26.5165 24.2869 26.5012 24.3134C26.4714 24.365 26.4891 24.431 26.5407 24.4608L33.0511 28.2196C33.5294 28.4957 33.6932 29.1073 33.4171 29.5856L31.8747 32.2571Z"
        fill="white" />
</svg>