<svg width="32" height="32" viewBox="0 0 32 32" fill="none" xmlns="http://www.w3.org/2000/svg">
  <g clip-path="url(#clip0_231_14774)">
    <path d="M7.06267 8.34C7.06267 8.34 7.08933 12.1347 9.03733 16.06C11.04 19.8387 13.8 22.2653 16.0773 23.2333C18.4307 22.132 20.704 20.2227 21.944 18.1667H15.484C13.8133 16.78 12.4973 14.4827 12.196 11.8267H31.1467C30.212 16.0973 28.2293 19.9813 26.34 22.4547C23.7094 25.8915 20.1549 28.5085 16.092 30H16.032C9.23467 27.292 5.57867 23.0267 3.16533 18.2133C1.61867 15.1293 0 9.52933 0 2H32C32.0062 4.12071 31.8637 6.23925 31.5733 8.34H7.06267Z" fill="currentColor" />
  </g>
  <defs>
    <clipPath id="clip0_231_14774">
      <rect width="32" height="32" fill="white" />
    </clipPath>
  </defs>
</svg>