<svg width="40" height="40" viewBox="0 0 40 40" fill="none" xmlns="http://www.w3.org/2000/svg">
    <path
        d="M9.99992 33.3333C9.5277 33.3333 9.13215 33.1733 8.81326 32.8533C8.49437 32.5333 8.33437 32.1377 8.33326 31.6666C8.33214 31.1955 8.49215 30.7999 8.81326 30.4799C9.13437 30.1599 9.52992 29.9999 9.99992 29.9999H29.9999C30.4721 29.9999 30.8683 30.1599 31.1883 30.4799C31.5083 30.7999 31.6677 31.1955 31.6666 31.6666C31.6655 32.1377 31.5055 32.5338 31.1866 32.8549C30.8677 33.176 30.4721 33.3355 29.9999 33.3333H9.99992ZM11.1666 27.4999C10.361 27.4999 9.64603 27.236 9.02159 26.7083C8.39715 26.1805 8.01492 25.5138 7.87492 24.7083L6.20826 14.1249C6.1527 14.1249 6.09048 14.1321 6.02159 14.1466C5.9527 14.161 5.88992 14.1677 5.83326 14.1666C5.13881 14.1666 4.54881 13.9238 4.06326 13.4383C3.5777 12.9527 3.33437 12.3621 3.33326 11.6666C3.33214 10.971 3.57548 10.381 4.06326 9.89659C4.55103 9.41215 5.14103 9.16881 5.83326 9.16659C6.52548 9.16437 7.11603 9.4077 7.60492 9.89659C8.09381 10.3855 8.33659 10.9755 8.33326 11.6666C8.33326 11.861 8.31214 12.0416 8.26992 12.2083C8.2277 12.3749 8.17937 12.5277 8.12492 12.6666L13.3333 14.9999L18.5416 7.87492C18.236 7.6527 17.986 7.36103 17.7916 6.99992C17.5971 6.63881 17.4999 6.24992 17.4999 5.83326C17.4999 5.13881 17.7433 4.54826 18.2299 4.06159C18.7166 3.57492 19.3066 3.33214 19.9999 3.33326C20.6933 3.33437 21.2838 3.5777 21.7716 4.06326C22.2594 4.54881 22.5021 5.13881 22.4999 5.83326C22.4999 6.24992 22.4027 6.63881 22.2083 6.99992C22.0138 7.36103 21.7638 7.6527 21.4583 7.87492L26.6666 14.9999L31.8749 12.6666C31.8194 12.5277 31.7705 12.3749 31.7283 12.2083C31.686 12.0416 31.6655 11.861 31.6666 11.6666C31.6666 10.9721 31.9099 10.3816 32.3966 9.89492C32.8833 9.40826 33.4733 9.16548 34.1666 9.16659C34.8599 9.1677 35.4505 9.41103 35.9383 9.89659C36.426 10.3821 36.6688 10.9721 36.6666 11.6666C36.6644 12.361 36.4216 12.9516 35.9383 13.4383C35.4549 13.9249 34.8644 14.1677 34.1666 14.1666C34.111 14.1666 34.0488 14.1599 33.9799 14.1466C33.911 14.1333 33.8483 14.126 33.7916 14.1249L32.1249 24.7083C31.986 25.5138 31.6044 26.1805 30.9799 26.7083C30.3555 27.236 29.6399 27.4999 28.8333 27.4999H11.1666Z"
        fill="currentColor" />
</svg>