<svg width="32" height="32" viewBox="0 0 32 32" fill="none" xmlns="http://www.w3.org/2000/svg">
    <path
        d="M5.33331 18.1599V18.7599C5.33331 21.1999 9.71998 23.9199 16 23.9199C22.28 23.9199 26.6666 21.1999 26.6666 18.7599V18.1599C24.2533 20.0399 20.4133 21.2532 16 21.2532C11.5866 21.2532 7.74665 20.0532 5.33331 18.1599Z"
        fill="currentColor" />
    <path
        d="M5.33331 12.7334V13.4134C5.33331 15.8534 9.71998 18.5734 16 18.5734C22.28 18.5734 26.6666 15.8534 26.6666 13.4134V12.7334C24.2533 14.6134 20.4133 15.8267 16 15.8267C11.5866 15.8267 7.74665 14.6267 5.33331 12.7334Z"
        fill="currentColor" />
    <path
        d="M16 2.66675C10.6933 2.66675 5.33331 4.49341 5.33331 8.00008C5.33331 10.4401 9.71998 13.1601 16 13.1601C22.28 13.1601 26.6666 10.4401 26.6666 8.00008C26.6666 4.49341 21.3066 2.66675 16 2.66675ZM5.33331 23.4934V24.0001C5.33331 27.5067 10.6933 29.3334 16 29.3334C21.3066 29.3334 26.6666 27.5067 26.6666 24.0001V23.4934C24.2533 25.3734 20.4133 26.5867 16 26.5867C11.5866 26.5867 7.74665 25.3867 5.33331 23.4934Z"
        fill="currentColor" />
</svg>