<svg width="252" height="351" viewBox="0 0 252 351" fill="none" xmlns="http://www.w3.org/2000/svg">
    <path
        d="M54.1397 252.856C46.5664 255.588 39.2295 257.699 32.6708 258.211C31.4366 262.498 30.3688 267.008 29.5086 271.775L96.5647 289.742L110.759 236.767C97.5026 233.218 74.9252 245.363 54.1397 252.856Z"
        fill="#FE8D00" />
    <path
        d="M110.756 236.769L96.5615 289.744L163.618 307.712C165.256 303.153 166.584 298.713 167.661 294.384C147.343 280.44 128.836 241.614 110.756 236.769Z"
        fill="#FE8D00" />
    <path
        d="M122.072 174.406L132.136 177.102C133.259 172.911 170.001 167.825 197.493 137.379C182.365 133.815 161.666 127.249 149.289 116.207C132.072 100.845 96.4154 96.8713 83.5412 95.9166C88.3241 143.13 123.298 169.832 122.072 174.406Z"
        fill="#FE8D00" />
    <g opacity="0.5">
        <path
            d="M113.729 146.434C112.514 146.108 111.437 145.302 110.8 144.106C97.0715 118.369 93.5497 90.8563 100.329 62.3302C100.929 59.8078 103.46 58.2497 105.983 58.8479C108.572 59.4813 110.063 61.9788 109.465 64.5018C103.232 90.7348 106.469 116.03 119.086 139.689C120.307 141.978 119.439 144.821 117.153 146.04C116.059 146.626 114.837 146.731 113.729 146.434Z"
            fill="white" />
    </g>
    <path
        d="M113.465 172.099C113.217 173.023 114.453 174.854 116.612 177.57C119.84 176.297 121.825 175.329 122.072 174.406C122.32 173.482 121.084 171.651 118.926 168.934C115.698 170.208 113.712 171.176 113.465 172.099Z"
        fill="#FE8D00" />
    <path d="M129.827 176.483L124.384 175.025L106.702 241.014L112.145 242.473L129.827 176.483Z"
        fill="#FE8D00" />
    <path
        d="M239.702 42.3074L93.8927 3.23789C87.2189 1.44965 80.3591 5.41017 78.5709 12.084C76.7826 18.7578 80.7431 25.6176 87.4169 27.4058L233.226 66.4753C239.9 68.2635 246.76 64.303 248.548 57.6292C250.336 50.9554 246.376 44.0956 239.702 42.3074Z"
        fill="#FE8D00" />
    <path
        d="M225.722 69.9306L94.1189 34.6676C91.985 34.0958 89.7916 35.3622 89.2199 37.496L87.7361 43.0335L227.067 80.3671L228.551 74.8296C229.123 72.6958 227.856 70.5024 225.722 69.9306Z"
        fill="#FE8D00" />
    <path
        d="M12.0848 308.553L157.894 347.622C164.568 349.411 171.428 345.45 173.216 338.776C175.004 332.103 171.044 325.243 164.37 323.455L18.5606 284.385C11.8868 282.597 5.02699 286.557 3.23875 293.231C1.45052 299.905 5.41101 306.765 12.0848 308.553Z"
        fill="#FE8D00" />
    <path d="M24.1506 280.618L163.412 317.933L165.981 308.345L26.7196 271.03L24.1506 280.618Z"
        fill="#FE8D00" />
    <path
        d="M165.39 311.102L26.2734 273.825L26.7337 271.273C38.9353 203.73 89.8223 184.638 111.551 176.484C114.291 175.456 117.32 174.318 118.842 173.54C117.915 172.106 115.859 169.606 114 167.346C99.2589 149.42 64.7354 107.442 87.9409 42.845L88.8178 40.4067L227.935 77.6829L227.475 80.233C215.27 147.778 164.386 166.87 142.657 175.025C139.917 176.052 136.888 177.19 135.366 177.968C136.293 179.402 138.349 181.903 140.208 184.162C154.949 202.089 189.473 244.066 166.268 308.661L165.39 311.102ZM32.7617 269.733L161.82 304.314C182.21 244.11 149.803 204.699 135.857 187.742C130.796 181.587 128.702 179.041 129.416 176.376C130.13 173.711 133.219 172.551 140.678 169.751C161.233 162.039 209.004 144.112 221.448 81.7787L92.3898 47.1977C71.9997 107.401 104.407 146.812 118.352 163.769C123.414 169.924 125.508 172.47 124.793 175.137C124.079 177.803 120.99 178.962 113.532 181.76C92.9739 189.472 45.2029 207.399 32.7617 269.733Z"
        fill="#FE8D00" />
</svg>