<svg width="32" height="32" viewBox="0 0 32 32" fill="none" xmlns="http://www.w3.org/2000/svg">
<path fill-rule="evenodd" clip-rule="evenodd" d="M25.2933 9.29299C25.4808 9.10572 25.735 9.00053 26 9.00053C26.265 9.00053 26.5191 9.10572 26.7066 9.29299L26.7093 9.29565L26.7133 9.29832L26.7226 9.30765L26.7493 9.33432L26.832 9.42632C26.8986 9.50232 26.992 9.61032 27.1 9.74765C28.3319 11.3489 28.9999 13.3126 29 15.333C28.9999 17.3534 28.3319 19.317 27.1 20.9183C26.9883 21.0608 26.8709 21.1987 26.748 21.3317L26.7213 21.3583L26.7133 21.3677L26.7093 21.3703L26.708 21.3717L26.028 20.6943L26.708 21.3743C26.5204 21.5619 26.2659 21.6673 26.0006 21.6673C25.7353 21.6673 25.4809 21.5619 25.2933 21.3743C25.1057 21.1867 25.0003 20.9323 25.0003 20.667C25.0003 20.4017 25.1057 20.1472 25.2933 19.9597L25.292 19.961L25.2893 19.9623L25.296 19.9557L25.34 19.9077C25.3826 19.8614 25.4444 19.7872 25.5253 19.685C26.3688 18.5838 26.8743 17.2614 26.9803 15.8783C27.0864 14.4953 26.7884 13.1112 26.1226 11.8943C25.9488 11.5741 25.749 11.2686 25.5253 10.981C25.4529 10.8874 25.3764 10.7971 25.296 10.7103L25.2893 10.7037C25.1034 10.5157 24.9994 10.2618 25.0002 9.99749C25.0009 9.73314 25.1063 9.47985 25.2933 9.29299ZM17.3826 4.52765C18.9333 3.50499 21 4.61832 21 6.47565V25.5236C21 27.3823 18.9333 28.4943 17.3826 27.4717L9.38263 22.1983C9.32851 22.1622 9.26501 22.1428 9.19996 22.1423H5.33329C4.36083 22.1423 3.4282 21.756 2.74057 21.0684C2.05293 20.3807 1.66663 19.4481 1.66663 18.4757V13.5237C1.66663 12.5512 2.05293 11.6186 2.74057 10.9309C3.4282 10.2433 4.36083 9.85699 5.33329 9.85699H9.19996C9.26533 9.8572 9.32931 9.83819 9.38396 9.80232L17.3826 4.52765Z" fill="#FE8D00"/>
</svg>
